<svg width="165" height="27" viewBox="0 0 165 27" fill="none" xmlns="http://www.w3.org/2000/svg">
<path d="M112.444 11.2807H100.793L102.695 6.99057C103.488 5.19718 104.201 4.56422 105.364 4.56422C106.552 4.56422 106.949 5.83014 106.315 7.37739H118.204L119.393 4.56422C120.264 2.45434 120.264 0.16864 118.124 0.16864H97.1733C95.2711 0.16864 93.7915 0.485122 92.6819 2.91148L88.9831 11.2807C87.9527 13.707 88.032 15.6762 90.5683 15.6762H102.616L100.661 20.2828C100.106 21.5487 99.3926 22.3927 97.7546 22.3927C96.3279 22.3927 96.4071 21.1267 97.0412 19.896H85.2314L83.8048 23.0256C82.9329 25.03 83.6462 26.7882 85.707 26.7882H106.5C108.402 26.7882 110.04 25.6278 110.991 23.5531L114.531 15.6762C115.271 13.707 114.875 11.2807 112.444 11.2807Z" fill="white"/>
<path d="M163.039 5.3381C162.088 5.3381 161.295 6.35788 161.295 7.58864C161.295 8.85457 162.088 9.83917 163.039 9.83917C163.99 9.83917 164.783 8.8194 164.783 7.58864C164.756 6.35788 163.99 5.3381 163.039 5.3381ZM163.039 9.4172C162.246 9.4172 161.639 8.60841 161.639 7.58864C161.639 6.60403 162.273 5.79524 163.039 5.79524C163.805 5.79524 164.439 6.60403 164.439 7.58864C164.439 8.60841 163.805 9.4172 163.039 9.4172Z" fill="white"/>
<path d="M85.602 0.16864H67.7949C65.3642 0.16864 62.1938 0.16864 60.318 4.56422L52.4448 22.3927C51.3352 24.819 52.2863 26.7882 54.347 26.7882H75.034C77.1476 26.7882 78.495 25.9443 80.1595 22.3927L88.0327 4.56422C89.063 2.27852 87.4778 0.16864 85.602 0.16864ZM75.5888 6.99057L69.6971 20.2828C68.9045 22.1817 68.1912 22.3927 66.3946 22.3927C64.5716 22.3927 64.1225 21.5487 64.6509 20.2828L70.6218 6.99057C71.4937 4.98619 72.5241 4.56422 74.0036 4.56422C75.5095 4.56422 76.3814 5.19718 75.5888 6.99057Z" fill="white"/>
<path d="M54.3989 0.16864H31.572L21.7437 22.3927H0V26.7882H43.8573C46.7635 26.7882 47.7147 24.8894 48.3487 23.4476L50.7001 17.9971C51.3342 16.5202 51.3342 14.8674 50.0661 13.918C51.3342 13.918 53.0515 12.7576 54.0819 10.3664L56.4333 5.02136C57.6486 2.38401 56.2219 0.16864 54.3989 0.16864ZM42.6684 18.1026L41.4795 20.5993C41.1625 21.4432 40.6077 22.3927 39.2867 22.3927H33.4478L36.4597 15.6762H42.1136C43.144 15.6762 43.144 16.9422 42.6684 18.1026ZM47.6354 6.99057L46.4465 9.52243C46.1295 10.3664 45.5746 11.3158 44.2536 11.3158H38.4148L41.4003 4.59938H47.0806C48.111 4.56422 48.111 5.83014 47.6354 6.99057Z" fill="white"/>
<path d="M163.911 6.99078C163.911 6.77979 163.831 6.56881 163.699 6.46331C163.541 6.35782 163.382 6.35782 163.224 6.35782H162.378V8.85451H162.669V7.69407H163.012L163.567 8.85451H163.884L163.303 7.69407C163.646 7.69407 163.911 7.48309 163.911 6.99078ZM162.986 7.37759H162.669V6.60397H163.171C163.409 6.60397 163.62 6.63914 163.62 6.95562C163.62 7.44792 163.25 7.37759 162.986 7.37759Z" fill="white"/>
<path d="M134.848 4.56422H164.386V0.16864H125.02L113.29 26.7882H140.687L142.642 22.3927H126.975L129.961 15.6762H145.628L147.53 11.2807H131.942L134.848 4.56422Z" fill="white"/>
</svg>
