<svg width="621" height="671" viewBox="0 0 621 671" fill="none" xmlns="http://www.w3.org/2000/svg">
<g opacity="0.33">
<path d="M161.826 451.137C227.119 451.137 245.746 656.304 377.483 656.304C427.221 656.304 461.019 602.657 461.019 562.662C461.019 536.704 440.087 504.4 440.087 465.943C440.087 388.26 592.948 429.409 592.948 318.076C592.948 255.007 541.098 201.937 490.977 201.937C456.026 201.937 413.97 230.587 387.853 230.587C350.406 230.587 366.921 152.135 365.001 130.792C360.392 79.8363 304.701 35.4187 254.964 35.4187C187.751 35.4187 191.016 129.253 191.016 174.056C191.016 345.573 57.166 235.587 57.1661 380.377C57.1661 409.604 69.6484 480.172 109.592 480.172C133.213 480.172 124.955 451.137 161.826 451.137Z" stroke="url(#paint0_linear_3302_2)" stroke-miterlimit="10"/>
<path d="M109.976 484.595C132.828 485.364 124.955 457.098 160.29 457.675C223.47 458.636 242.673 656.881 370.378 656.881C396.303 656.881 415.506 641.499 432.406 624.578C449.497 607.272 461.403 585.736 463.516 565.739C466.396 540.934 446.616 508.822 447 470.558C447.192 458.252 451.033 448.83 457.37 440.946C491.169 398.451 589.876 412.873 589.876 318.846C589.876 254.238 544.171 199.437 495.97 197.899C462.555 196.937 420.883 222.127 393.038 221.55C376.331 221.165 369.994 206.359 367.305 188.092C364.041 165.211 367.113 137.137 365.193 126.177C357.511 79.0672 303.741 40.2258 253.427 40.2258C187.367 40.2258 187.943 127.907 186.215 170.787C184.294 219.242 172.004 246.162 156.065 263.468C118.81 304.04 58.3181 280.389 60.2385 381.723C60.4305 390.183 61.5827 402.105 63.8872 414.796C68.4961 441.523 77.7138 469.789 96.7255 480.941C100.758 483.056 105.175 484.402 109.976 484.595Z" stroke="url(#paint1_linear_3302_2)" stroke-miterlimit="10"/>
<path d="M110.744 489.21C132.636 490.94 125.147 463.251 159.137 464.405C220.013 466.328 239.793 657.458 363.272 657.458C391.118 657.458 409.361 639.191 428.757 622.27C447 606.118 461.595 588.236 466.204 568.623C471.773 545.164 453.338 513.245 454.298 474.788C454.49 462.482 458.523 453.06 464.284 444.792C497.314 398.644 586.803 414.026 586.803 319.23C586.803 253.085 547.052 196.553 500.963 193.669C469.085 191.746 427.797 213.474 398.415 212.32C381.708 211.551 374.795 197.514 371.146 180.016C366.537 158.096 368.265 131.753 365.577 121.754C354.439 78.6827 302.397 44.8407 251.699 44.8407C186.599 44.8407 184.486 126.177 181.222 167.326C177.573 213.666 164.322 241.355 148.959 260.776C113.817 305.001 59.4703 282.504 63.3111 382.876C63.6952 391.721 64.8474 403.643 67.1518 416.526C71.7607 444.215 79.2501 471.904 97.6857 484.595C101.718 487.094 105.943 488.825 110.744 489.21Z" stroke="url(#paint2_linear_3302_2)" stroke-miterlimit="10"/>
<path d="M111.32 493.824C132.06 496.324 125.147 469.597 157.793 471.135C216.556 474.019 236.72 658.035 356.359 658.035C386.317 658.035 403.408 636.884 425.3 619.963C444.696 604.965 461.979 590.736 469.085 571.7C477.15 549.779 460.251 517.668 461.787 479.403C462.171 467.097 466.204 457.675 471.581 449.214C503.651 399.605 584.307 415.565 584.307 319.999C584.307 252.315 550.508 193.861 506.724 189.631C476.19 186.554 435.478 205.013 404.56 203.091C387.853 202.129 380.364 188.477 375.755 171.941C369.994 150.982 370.186 126.369 366.729 117.332C352.326 78.2982 302.013 49.8401 250.931 49.8401C186.791 49.8401 182.182 125.023 177.189 164.249C171.62 208.475 157.601 236.74 142.814 258.468C109.784 306.347 61.7749 285.004 67.1519 384.415C67.728 393.452 69.0723 405.566 71.1847 418.834C75.6015 447.292 81.5547 474.211 99.4141 488.825C102.679 491.325 106.904 493.248 111.32 493.824Z" stroke="url(#paint3_linear_3302_2)" stroke-miterlimit="10"/>
<path d="M112.088 498.439C131.868 501.708 125.339 475.75 156.449 477.673C213.1 481.518 233.84 658.612 349.446 658.612C381.516 658.612 397.263 634.384 421.843 617.656C442.199 603.811 462.363 593.428 471.965 574.584C482.335 554.202 467.356 522.09 469.085 483.633C469.661 471.327 473.501 461.713 478.686 453.06C509.988 399.605 581.426 416.526 581.426 320.384C581.426 251.162 553.581 190.977 511.909 185.208C482.911 181.17 442.583 196.168 409.937 193.669C393.23 192.323 385.164 179.247 379.787 163.48C372.874 143.483 371.53 120.601 367.305 112.333C349.638 77.5291 301.052 54.0704 249.587 54.0704C186.599 54.0704 179.301 122.908 172.58 160.404C165.09 202.322 150.496 231.549 136.093 255.2C104.983 306.54 63.311 286.542 70.4164 384.992C70.9925 394.221 72.7208 406.527 74.6412 419.987C78.4819 449.791 82.8988 475.75 100.374 492.286C103.639 495.363 107.672 497.67 112.088 498.439Z" stroke="url(#paint4_linear_3302_2)" stroke-miterlimit="10"/>
<path d="M112.665 502.862C131.292 506.9 125.531 481.71 155.105 484.21C209.451 489.017 230.767 659.189 342.34 659.189C376.331 659.189 390.926 631.884 418.195 615.348C439.319 602.657 462.171 596.119 474.462 577.66C486.944 558.816 473.886 526.705 476.19 488.248C476.958 476.134 480.799 466.328 485.6 457.29C515.942 399.99 578.545 418.064 578.545 321.153C578.545 250.392 556.653 188.477 517.094 181.17C489.44 176.171 449.689 187.708 415.506 184.439C398.799 182.901 390.158 170.21 383.82 155.404C375.563 136.368 372.874 115.217 367.881 107.91C346.949 77.3366 300.092 58.8773 248.242 58.8773C186.215 58.8773 176.421 121.37 167.971 157.135C158.753 196.745 143.198 226.741 129.18 252.7C99.9901 307.501 65.0395 288.849 73.6811 386.53C74.4493 395.952 76.1776 408.45 78.098 422.102C82.1307 452.483 84.8192 477.672 101.718 495.939C104.599 499.401 108.44 502.092 112.665 502.862Z" stroke="url(#paint5_linear_3302_2)" stroke-miterlimit="10"/>
<path d="M113.241 507.477C130.716 512.091 125.531 487.864 153.569 490.94C205.995 496.709 227.695 659.766 335.235 659.766C371.338 659.766 384.397 629.385 414.546 613.041C436.439 601.311 461.979 598.812 477.15 580.545C491.553 563.047 480.607 530.935 483.296 492.478C484.064 480.364 487.904 470.558 492.321 461.328C521.703 400.182 575.281 419.218 575.281 321.73C575.281 249.431 559.342 185.593 521.895 176.94C495.586 170.979 456.41 179.055 420.499 175.209C403.792 173.287 394.575 161.365 387.277 147.136C377.867 128.869 373.643 109.64 367.881 103.295C344.069 77.1444 298.556 63.4923 246.13 63.4923C185.255 63.4923 172.772 119.447 162.594 153.674C151.648 191.169 135.133 221.742 121.69 249.816C94.2292 307.886 65.9998 290.772 76.1777 387.491C77.1379 397.105 79.0583 409.796 80.7866 423.833C84.6274 455.175 85.5875 479.403 102.103 499.593C105.559 503.439 109.208 506.323 113.241 507.477Z" stroke="url(#paint6_linear_3302_2)" stroke-miterlimit="10"/>
<path d="M114.009 512.091C131.1 514.207 125.723 494.017 152.416 497.67C202.73 504.4 224.814 660.343 328.514 660.343C366.537 660.343 378.251 626.693 411.282 610.925C433.942 599.965 461.979 601.696 480.223 583.813C496.546 567.854 487.904 535.742 490.977 497.285C491.937 485.172 495.778 475.173 499.811 465.751C528.232 400.759 572.977 420.756 572.977 322.691C572.977 248.854 563.183 183.285 527.656 173.094C502.883 165.98 464.092 170.979 426.645 166.364C409.745 164.249 400.143 152.712 391.886 139.445C381.132 122.139 375.755 104.641 369.034 99.0648C342.532 77.1444 298.172 68.6839 245.362 68.6839C185.446 68.6839 170.468 118.293 158.753 150.789C146.079 185.977 128.412 217.32 115.737 247.701C90.0043 309.231 68.6882 293.464 80.2104 389.222C81.3626 399.221 83.283 411.911 85.0113 426.14C88.66 458.444 88.0839 481.518 104.023 503.823C106.519 507.284 110.168 509.976 114.009 512.091Z" stroke="url(#paint7_linear_3302_2)" stroke-miterlimit="10"/>
<path d="M114.585 516.706C130.716 519.014 125.915 500.362 151.072 504.208C199.273 511.899 221.933 660.919 321.408 660.919C361.544 660.919 371.722 624.001 407.633 608.618C430.869 598.619 461.403 604.196 482.911 586.698C500.963 572.084 494.626 539.973 498.082 501.708C499.234 489.786 502.883 479.595 506.724 469.981C533.993 400.951 569.904 422.102 569.904 323.268C569.904 247.893 566.063 180.593 532.649 169.056C509.22 160.98 470.813 162.519 432.022 157.135C415.122 154.827 404.944 143.675 395.727 131.369C383.82 115.025 376.907 99.2572 369.418 94.6424C340.42 76.9523 297.02 73.4911 243.826 73.4912C184.87 73.4912 167.395 116.563 153.952 147.521C139.55 180.401 120.922 212.513 108.824 245.201C84.8192 310.001 70.4165 295.772 83.283 390.568C84.6272 400.759 86.7396 413.642 88.2759 428.256C91.7326 461.521 89.6202 483.441 104.983 508.053C107.48 511.322 111.128 514.207 114.585 516.706Z" stroke="url(#paint8_linear_3302_2)" stroke-miterlimit="10"/>
<path d="M115.353 521.321C130.524 524.013 126.107 506.515 149.728 510.938C195.816 519.591 218.861 661.496 314.495 661.496C356.743 661.496 365.385 621.309 404.176 606.311C428.181 597.081 461.019 606.503 485.6 589.582C505.187 576.122 501.347 544.395 505.379 505.938C506.724 494.017 510.18 483.633 513.829 473.827C539.754 400.759 567.215 423.256 567.215 323.653C567.215 246.739 569.328 177.517 538.026 164.634C516.134 155.596 478.11 153.866 437.59 147.713C420.691 145.213 409.745 134.445 399.759 122.908C386.509 107.525 378.443 93.4887 369.802 89.643C338.308 75.9908 296.059 77.7213 242.289 77.7213C184.486 77.7213 164.514 114.448 149.151 143.675C133.212 174.056 113.241 207.129 101.91 241.932C79.6342 310.001 72.1447 297.31 86.5475 391.145C88.0838 401.528 90.1962 414.603 91.7325 429.409C94.9971 463.636 91.5404 484.403 106.135 511.13C108.632 515.36 111.896 518.629 115.353 521.321Z" stroke="url(#paint9_linear_3302_2)" stroke-miterlimit="10"/>
<path d="M115.929 525.744C130.14 528.628 126.299 512.668 148.383 517.475C192.552 527.09 215.98 661.881 307.39 661.881C351.558 661.881 358.664 618.232 400.528 603.811C425.108 595.35 460.443 608.618 488.288 592.466C509.604 580.16 508.068 548.625 512.677 510.361C514.021 498.439 517.67 488.056 520.743 477.865C545.515 400.759 564.143 424.41 564.143 324.23C564.143 245.778 572.208 174.825 543.211 160.404C522.663 150.212 485.216 145.213 443.16 138.483C426.26 135.791 414.738 125.408 403.984 114.832C389.389 100.411 380.172 87.9124 370.57 85.2204C336.771 75.6062 295.291 82.5284 241.137 82.5284C184.294 82.5284 162.018 112.717 144.735 140.406C127.259 168.48 106.135 202.322 95.3812 239.432C74.6413 310.77 74.4492 299.617 90.0042 392.683C91.7325 403.259 94.037 416.526 95.3812 431.524C98.4538 466.52 93.4609 486.325 107.48 515.168C109.592 519.398 112.665 522.859 115.929 525.744Z" stroke="url(#paint10_linear_3302_2)" stroke-miterlimit="10"/>
<path d="M116.505 530.358C129.756 533.627 126.299 518.821 147.039 524.205C189.287 534.973 212.908 662.65 300.476 662.65C346.757 662.65 352.326 615.54 397.263 601.696C422.612 594.004 460.251 610.925 491.361 595.543C514.213 584.198 515.173 553.24 520.166 514.783C521.703 503.054 525.159 492.478 528.04 482.095C551.468 400.951 561.646 425.756 561.646 324.999C561.646 245.009 575.665 172.133 548.78 156.365C529.768 145.213 492.705 136.945 448.921 129.253C432.021 126.177 419.731 116.563 408.209 106.564C392.27 93.104 381.9 82.3361 371.338 80.6055C335.043 74.6447 294.523 87.3355 239.985 87.3355C184.294 87.3355 159.521 110.986 140.318 137.137C121.306 162.711 98.8378 197.322 88.6599 236.74C69.6482 311.539 76.5616 301.732 93.2688 393.837C95.1891 404.604 97.4936 418.064 98.8378 433.447C101.718 469.404 95.3812 488.056 108.632 519.014C110.552 523.436 113.625 527.09 116.505 530.358Z" stroke="url(#paint11_linear_3302_2)" stroke-miterlimit="10"/>
<path d="M117.273 534.973C129.372 538.434 126.683 525.167 145.695 530.935C186.023 542.857 210.027 663.227 293.563 663.227C341.764 663.227 345.797 612.464 393.806 599.388C419.731 592.274 459.675 613.041 494.049 598.619C518.63 588.428 521.895 557.855 527.464 519.398C529.192 507.669 532.457 496.901 535.145 486.325C557.037 401.143 558.766 427.102 558.766 325.576C558.766 244.047 578.737 169.441 553.965 152.135C536.297 139.829 499.81 128.484 454.49 120.024C437.399 116.755 424.724 107.525 412.242 98.488C394.958 85.9895 383.436 76.7599 371.914 75.9907C333.315 73.6833 293.563 91.9503 238.641 91.9503C183.91 91.9503 157.025 109.256 135.709 133.676C115.353 157.135 91.3484 192.515 82.1307 234.048C64.6553 312.116 78.8661 303.848 96.9175 394.99C99.0299 405.95 101.526 419.603 102.679 435.178C105.367 472.096 97.8777 489.594 110.168 522.667C111.704 527.282 114.393 531.32 117.273 534.973Z" stroke="url(#paint12_linear_3302_2)" stroke-miterlimit="10"/>
<path d="M117.849 539.588C128.988 543.434 126.683 531.512 144.35 537.473C182.758 550.548 206.954 663.804 286.458 663.804C336.771 663.804 339.268 609.387 390.157 597.273C416.851 590.928 459.099 615.156 496.738 601.696C522.855 592.274 528.808 562.278 534.569 523.821C536.297 512.091 539.562 501.323 542.058 490.363C562.414 401.143 555.885 428.448 555.885 326.153C555.885 243.086 581.81 166.557 559.15 148.097C542.827 134.83 506.916 120.216 460.059 110.794C442.967 107.333 429.525 98.488 416.274 90.4121C397.647 78.875 384.972 71.1836 372.49 71.5682C331.202 72.9142 292.603 96.7575 237.296 96.7575C183.526 96.7575 154.528 107.525 131.1 130.407C109.4 151.558 83.8589 187.708 75.4093 231.549C59.4703 312.885 80.9784 306.155 100.182 396.336C102.679 407.681 104.983 421.333 106.135 437.101C108.632 474.981 99.798 491.325 111.128 526.513C112.664 531.32 115.353 535.55 117.849 539.588Z" stroke="url(#paint13_linear_3302_2)" stroke-miterlimit="10"/>
<path d="M118.618 544.011C128.796 548.049 127.067 537.857 143.006 544.011C179.493 558.24 204.074 664.188 279.544 664.188C331.97 664.188 332.739 606.118 386.701 594.774C413.97 589.005 458.715 616.886 499.618 604.58C527.464 596.12 535.721 566.7 542.059 528.243C543.979 516.514 547.051 505.554 549.356 494.594C568.175 401.336 553.197 429.794 553.197 326.922C553.197 242.317 585.075 163.865 564.527 144.059C549.74 129.638 514.213 111.948 465.628 101.757C448.537 98.1034 434.518 89.8351 420.307 82.3361C400.335 71.7604 386.509 65.6073 373.066 66.9533C329.282 71.7604 291.643 101.372 235.952 101.372C183.334 101.372 152.032 105.795 126.491 126.946C103.447 145.982 76.3696 182.516 68.4961 228.664C54.0933 313.269 83.0909 308.078 103.255 397.49C105.943 409.027 108.44 422.872 109.4 439.023C111.704 477.865 101.718 493.055 112.088 530.358C113.625 535.358 116.121 539.973 118.618 544.011Z" stroke="url(#paint14_linear_3302_2)" stroke-miterlimit="10"/>
<path d="M119.194 548.625C128.412 553.048 127.067 544.203 141.662 550.74C176.421 566.123 201.001 664.957 272.439 664.957C326.785 664.957 326.209 603.042 383.052 592.658C411.09 587.467 458.139 619.001 502.307 607.657C531.881 600.157 542.443 571.123 549.164 532.666C551.276 521.129 554.157 509.976 556.077 498.631C573.169 401.336 550.124 430.947 550.124 327.498C550.124 241.355 587.955 160.98 569.52 139.829C556.077 124.254 521.127 103.487 471.005 92.5271C453.914 88.6814 439.127 80.7978 424.34 74.2601C402.832 64.6459 387.853 60.0311 373.642 62.5308C327.17 70.9913 290.683 106.179 234.608 106.179C182.95 106.179 149.728 104.256 121.882 123.677C97.6857 140.598 68.8802 177.709 61.7748 226.165C48.7163 314.231 85.2033 310.385 106.711 398.836C109.592 410.565 112.28 424.602 113.049 440.946C114.969 480.749 103.831 494.786 113.433 534.204C114.777 539.396 116.889 544.203 119.194 548.625Z" stroke="url(#paint15_linear_3302_2)" stroke-miterlimit="10"/>
<path d="M119.962 553.24C128.219 557.855 127.451 550.741 140.51 557.471C173.348 574.199 198.121 665.342 265.526 665.342C321.984 665.342 319.68 599.581 379.595 590.159C408.209 585.736 457.946 620.54 504.995 610.541C536.489 603.811 549.164 575.545 556.461 537.088C558.574 525.551 561.454 514.207 563.183 502.67C578.545 401.336 547.243 432.101 547.243 327.883C547.243 240.202 591.028 157.904 574.705 135.407C562.798 118.87 528.04 94.8347 476.382 82.9131C459.099 78.8751 443.928 71.5683 428.181 65.6075C405.328 56.9547 389.197 53.6859 374.026 57.5316C324.673 69.4532 289.722 110.602 233.071 110.602C182.374 110.602 147.039 102.526 117.081 120.024C91.7325 134.83 61.1986 172.518 54.8614 223.088C43.3392 314.423 87.3156 311.924 109.784 399.605C112.857 411.527 115.545 425.756 116.313 442.485C118.042 483.249 105.751 496.132 114.393 537.665C115.737 543.434 117.849 548.433 119.962 553.24Z" stroke="url(#paint16_linear_3302_2)" stroke-miterlimit="10"/>
<path d="M120.538 557.855C127.835 562.854 127.643 557.278 138.973 564.008C170.083 582.275 195.048 665.919 258.612 665.919C316.991 665.919 313.343 596.312 376.139 587.851C405.52 584.006 457.562 622.27 507.876 613.425C541.098 607.657 556.077 579.775 563.951 541.318C566.255 529.781 568.944 518.437 570.48 506.707C584.114 401.336 544.747 433.447 544.747 328.46C544.747 239.24 594.484 155.019 580.466 131.176C569.904 113.486 535.721 86.5663 482.527 73.6833C465.244 69.453 449.305 62.7231 432.79 57.5314C408.593 50.0323 391.118 48.1095 374.987 52.9166C322.945 68.4916 289.146 115.217 231.919 115.217C182.374 115.217 144.927 100.988 112.664 116.563C85.9713 129.446 53.9012 167.518 48.3321 220.396C38.3462 315 89.8121 314.039 113.241 400.759C116.505 412.873 119.386 427.294 119.962 444.215C121.498 485.941 108.248 497.67 115.737 541.319C116.889 547.279 118.618 552.663 120.538 557.855Z" stroke="url(#paint17_linear_3302_2)" stroke-miterlimit="10"/>
<path d="M121.114 562.278C127.451 567.469 127.643 563.624 137.629 570.546C166.819 590.543 192.168 666.496 251.699 666.496C312.191 666.496 307.006 592.851 372.682 585.736C402.832 582.467 457.37 624.193 510.757 616.694C545.707 611.695 562.991 584.582 571.248 546.126C573.745 534.781 576.241 523.052 577.585 511.13C589.492 401.72 541.867 434.985 541.867 329.421C541.867 238.663 597.749 152.52 585.651 127.331C576.625 108.487 542.827 78.4904 487.904 64.646C470.621 60.2234 454.106 53.878 436.631 49.4555C411.09 42.9178 392.462 42.5332 375.371 48.494C320.448 67.5302 287.994 120.024 230.383 120.024C181.798 120.024 142.43 99.834 107.864 113.294C80.0184 124.062 46.2199 162.711 41.419 217.704C32.7773 315.769 91.9246 316.154 116.505 402.105C119.962 414.411 122.843 429.025 123.419 446.138C124.763 488.633 110.36 499.401 116.889 545.164C117.85 551.317 119.578 557.086 121.114 562.278Z" stroke="url(#paint18_linear_3302_2)" stroke-miterlimit="10"/>
<path d="M121.882 566.892C127.259 572.469 127.836 570.354 136.477 577.276C163.554 599.004 189.287 667.073 244.594 667.073C307.198 667.072 300.285 589.582 369.034 583.429C399.76 580.737 456.794 625.924 513.253 619.578C550.124 615.54 569.52 588.813 578.354 550.356C580.85 539.011 583.347 527.282 584.307 514.976C594.293 401.528 538.794 435.947 538.794 329.806C538.794 237.51 600.63 149.443 590.644 123.1C583.154 103.295 549.548 70.2222 493.281 55.4163C475.998 50.8015 458.715 45.033 440.471 41.3796C413.586 35.9956 393.614 36.957 375.755 43.8793C317.952 66.3765 286.842 124.639 228.847 124.639C181.414 124.639 139.934 98.488 103.255 109.833C74.4493 119.062 38.9226 158.096 34.8898 215.397C27.7845 316.731 94.4212 318.461 119.962 403.643C123.803 416.334 126.683 431.14 127.067 448.445C128.22 491.902 112.665 501.516 118.234 549.587C119.002 555.355 120.346 561.316 121.882 566.892Z" stroke="url(#paint19_linear_3302_2)" stroke-miterlimit="10"/>
<path d="M122.458 571.507C126.875 577.468 127.835 577.083 134.941 584.006C159.906 607.657 186.215 667.842 237.488 667.842C302.013 667.842 293.755 586.313 365.385 581.314C396.879 579.199 456.41 627.846 515.942 622.847C554.733 619.578 576.241 593.62 585.459 555.163C588.147 543.818 590.452 531.897 591.22 519.59C599.285 402.105 535.721 437.87 535.721 330.96C535.721 237.125 603.702 147.328 595.637 119.447C589.492 98.488 556.461 62.3385 498.658 46.7635C481.183 41.9564 463.516 36.7648 444.504 33.8805C416.274 29.458 394.958 31.9576 376.331 40.0336C315.647 66.1842 285.882 130.215 227.502 130.215C181.03 130.215 137.437 98.2957 98.6459 107.333C68.3041 114.448 31.241 153.674 27.9764 213.282C22.2153 318.077 96.5335 321.153 123.035 405.374C127.067 418.257 129.948 433.255 130.332 450.753C131.292 495.17 114.777 503.631 119.194 553.817C119.962 559.393 121.114 565.546 122.458 571.507Z" stroke="url(#paint20_linear_3302_2)" stroke-miterlimit="10"/>
<path d="M123.227 576.122C125.531 582.852 127.835 583.814 133.789 590.543C156.257 616.502 183.334 668.226 230.575 668.226C297.212 668.226 287.418 582.66 361.928 578.814C394.19 577.084 456.218 629.385 518.822 625.539C559.534 623.039 583.154 597.658 592.948 559.201C595.829 547.856 597.941 535.935 598.517 523.244C604.662 401.72 533.225 438.639 533.225 330.96C533.225 235.587 607.159 143.867 601.206 114.64C596.597 92.5272 563.951 53.4935 504.419 36.7648C486.944 31.9576 468.7 27.1505 448.729 24.8431C419.155 21.5743 396.687 25.42 377.099 34.6496C313.535 64.4537 285.113 134.061 226.35 134.061C180.838 134.061 135.133 96.1806 94.229 103.103C62.543 108.487 23.7516 148.097 21.4471 209.628C17.2223 317.692 99.222 322.115 126.683 405.566C130.908 418.641 133.789 433.832 134.173 451.522C134.749 496.901 117.273 504.4 120.73 556.509C121.114 563.431 120.922 570.161 123.227 576.122Z" stroke="url(#paint21_linear_3302_2)" stroke-miterlimit="10"/>
<path d="M123.803 580.737C125.531 587.467 127.835 590.543 132.444 597.273C152.032 625.539 180.453 668.803 223.854 668.803C292.411 668.803 281.273 579.006 358.663 576.507C391.694 575.353 456.218 631.115 521.895 628.616C564.527 626.885 590.26 602.273 600.438 563.816C603.318 552.663 605.431 540.549 605.815 527.474C609.847 402.105 530.536 439.985 530.536 331.729C530.536 234.817 610.616 141.175 606.583 110.602C603.51 87.5278 571.056 45.4175 510.18 27.7274C492.705 22.728 473.693 18.3054 452.953 16.9594C422.228 14.8443 398.223 20.036 377.867 30.227C311.422 63.4922 284.345 138.868 225.198 138.868C180.837 138.868 132.828 95.2191 89.8121 99.834C56.5897 103.295 16.4541 143.29 14.9178 207.129C12.0373 318.653 101.718 324.23 130.14 406.912C134.749 420.179 137.629 435.562 137.821 453.637C138.205 499.977 119.77 506.323 122.074 560.547C122.074 567.469 122.074 574.199 123.803 580.737Z" stroke="url(#paint22_linear_3302_2)" stroke-miterlimit="10"/>
<path d="M124.379 585.159C125.531 592.082 127.451 597.081 130.908 603.811C147.039 634.576 177.381 669.38 216.748 669.38C287.418 669.38 274.743 575.545 355.015 574.199C388.813 573.622 455.834 632.846 524.391 631.5C568.752 630.731 596.789 606.503 607.543 568.046C610.616 556.894 612.344 544.587 612.728 531.512C614.84 402.105 527.656 441.138 527.656 332.306C527.656 233.664 613.88 138.291 611.768 106.372C610.232 82.1438 578.161 36.957 515.557 18.3055C497.89 13.1138 478.494 9.26809 456.794 8.49895C424.724 7.34525 399.375 14.0752 378.251 25.4199C308.926 62.3385 283.193 143.29 223.662 143.29C180.261 143.29 129.948 93.8732 85.0112 96.1806C50.4446 97.9111 8.5806 138.099 8.0045 204.052C6.27617 318.846 104.023 325.768 133.212 407.873C138.013 421.333 140.894 436.908 141.086 455.175C141.278 502.477 121.882 507.669 123.034 564.008C123.227 571.507 123.227 578.429 124.379 585.159Z" stroke="url(#paint23_linear_3302_2)" stroke-miterlimit="10"/>
<path d="M125.147 589.774C128.412 631.5 167.203 669.957 209.643 669.957C282.425 669.957 268.214 572.084 351.366 572.084C385.933 572.084 455.45 634.769 527.08 634.769C586.803 634.769 619.641 595.735 619.641 535.935C619.641 402.682 524.583 442.869 524.583 333.267C524.583 233.087 616.761 135.983 616.761 102.718C616.761 70.6068 564.911 0.999909 460.635 0.999914C317.76 0.99992 300.476 148.674 222.126 148.674C179.877 148.674 127.259 93.4887 80.2104 93.4887C44.1075 93.4887 0.899298 133.868 0.899301 202.129C0.899307 340.189 144.351 328.268 144.351 457.867C144.351 506.131 123.995 510.361 123.995 568.623C124.187 575.545 124.571 582.66 125.147 589.774Z" stroke="url(#paint24_linear_3302_2)" stroke-miterlimit="10"/>
</g>
<g opacity="0.33">
<path d="M161.826 451.137C227.119 451.137 245.746 656.304 377.483 656.304C427.221 656.304 461.019 602.657 461.019 562.662C461.019 536.704 440.087 504.4 440.087 465.943C440.087 388.26 592.948 429.409 592.948 318.076C592.948 255.007 541.098 201.937 490.977 201.937C456.026 201.937 413.97 230.587 387.853 230.587C350.406 230.587 366.921 152.135 365.001 130.792C360.392 79.8363 304.701 35.4187 254.964 35.4187C187.751 35.4187 191.016 129.253 191.016 174.056C191.016 345.573 57.166 235.587 57.1661 380.377C57.1661 409.604 69.6484 480.172 109.592 480.172C133.213 480.172 124.955 451.137 161.826 451.137Z" stroke="url(#paint25_linear_3302_2)" stroke-miterlimit="10"/>
<path d="M109.976 484.595C132.828 485.364 124.955 457.098 160.29 457.675C223.47 458.636 242.673 656.881 370.378 656.881C396.303 656.881 415.506 641.499 432.406 624.578C449.497 607.272 461.403 585.736 463.516 565.739C466.396 540.934 446.616 508.822 447 470.558C447.192 458.252 451.033 448.83 457.37 440.946C491.169 398.451 589.876 412.873 589.876 318.846C589.876 254.238 544.171 199.437 495.97 197.899C462.555 196.937 420.883 222.127 393.038 221.55C376.331 221.165 369.994 206.359 367.305 188.092C364.041 165.211 367.113 137.137 365.193 126.177C357.511 79.0672 303.741 40.2258 253.427 40.2258C187.367 40.2258 187.943 127.907 186.215 170.787C184.294 219.242 172.004 246.162 156.065 263.468C118.81 304.04 58.3181 280.389 60.2385 381.723C60.4305 390.183 61.5827 402.105 63.8872 414.796C68.4961 441.523 77.7138 469.789 96.7255 480.941C100.758 483.056 105.175 484.402 109.976 484.595Z" stroke="url(#paint26_linear_3302_2)" stroke-miterlimit="10"/>
<path d="M110.744 489.21C132.636 490.94 125.147 463.251 159.137 464.405C220.013 466.328 239.793 657.458 363.272 657.458C391.118 657.458 409.361 639.191 428.757 622.27C447 606.118 461.595 588.236 466.204 568.623C471.773 545.164 453.338 513.245 454.298 474.788C454.49 462.482 458.523 453.06 464.284 444.792C497.314 398.644 586.803 414.026 586.803 319.23C586.803 253.085 547.052 196.553 500.963 193.669C469.085 191.746 427.797 213.474 398.415 212.32C381.708 211.551 374.795 197.514 371.146 180.016C366.537 158.096 368.265 131.753 365.577 121.754C354.439 78.6827 302.397 44.8407 251.699 44.8407C186.599 44.8407 184.486 126.177 181.222 167.326C177.573 213.666 164.322 241.355 148.959 260.776C113.817 305.001 59.4703 282.504 63.3111 382.876C63.6952 391.721 64.8474 403.643 67.1518 416.526C71.7607 444.215 79.2501 471.904 97.6857 484.595C101.718 487.094 105.943 488.825 110.744 489.21Z" stroke="url(#paint27_linear_3302_2)" stroke-miterlimit="10"/>
<path d="M111.32 493.824C132.06 496.324 125.147 469.597 157.793 471.135C216.556 474.019 236.72 658.035 356.359 658.035C386.317 658.035 403.408 636.884 425.3 619.963C444.696 604.965 461.979 590.736 469.085 571.7C477.15 549.779 460.251 517.668 461.787 479.403C462.171 467.097 466.204 457.675 471.581 449.214C503.651 399.605 584.307 415.565 584.307 319.999C584.307 252.315 550.508 193.861 506.724 189.631C476.19 186.554 435.478 205.013 404.56 203.091C387.853 202.129 380.364 188.477 375.755 171.941C369.994 150.982 370.186 126.369 366.729 117.332C352.326 78.2982 302.013 49.8401 250.931 49.8401C186.791 49.8401 182.182 125.023 177.189 164.249C171.62 208.475 157.601 236.74 142.814 258.468C109.784 306.347 61.7749 285.004 67.1519 384.415C67.728 393.452 69.0723 405.566 71.1847 418.834C75.6015 447.292 81.5547 474.211 99.4141 488.825C102.679 491.325 106.904 493.248 111.32 493.824Z" stroke="url(#paint28_linear_3302_2)" stroke-miterlimit="10"/>
<path d="M112.088 498.439C131.868 501.708 125.339 475.75 156.449 477.673C213.1 481.518 233.84 658.612 349.446 658.612C381.516 658.612 397.263 634.384 421.843 617.656C442.199 603.811 462.363 593.428 471.965 574.584C482.335 554.202 467.356 522.09 469.085 483.633C469.661 471.327 473.501 461.713 478.686 453.06C509.988 399.605 581.426 416.526 581.426 320.384C581.426 251.162 553.581 190.977 511.909 185.208C482.911 181.17 442.583 196.168 409.937 193.669C393.23 192.323 385.164 179.247 379.787 163.48C372.874 143.483 371.53 120.601 367.305 112.333C349.638 77.5291 301.052 54.0704 249.587 54.0704C186.599 54.0704 179.301 122.908 172.58 160.404C165.09 202.322 150.496 231.549 136.093 255.2C104.983 306.54 63.311 286.542 70.4164 384.992C70.9925 394.221 72.7208 406.527 74.6412 419.987C78.4819 449.791 82.8988 475.75 100.374 492.286C103.639 495.363 107.672 497.67 112.088 498.439Z" stroke="url(#paint29_linear_3302_2)" stroke-miterlimit="10"/>
<path d="M112.665 502.862C131.292 506.9 125.531 481.71 155.105 484.21C209.451 489.017 230.767 659.189 342.34 659.189C376.331 659.189 390.926 631.884 418.195 615.348C439.319 602.657 462.171 596.119 474.462 577.66C486.944 558.816 473.886 526.705 476.19 488.248C476.958 476.134 480.799 466.328 485.6 457.29C515.942 399.99 578.545 418.064 578.545 321.153C578.545 250.392 556.653 188.477 517.094 181.17C489.44 176.171 449.689 187.708 415.506 184.439C398.799 182.901 390.158 170.21 383.82 155.404C375.563 136.368 372.874 115.217 367.881 107.91C346.949 77.3366 300.092 58.8773 248.242 58.8773C186.215 58.8773 176.421 121.37 167.971 157.135C158.753 196.745 143.198 226.741 129.18 252.7C99.9901 307.501 65.0395 288.849 73.6811 386.53C74.4493 395.952 76.1776 408.45 78.098 422.102C82.1307 452.483 84.8192 477.672 101.718 495.939C104.599 499.401 108.44 502.092 112.665 502.862Z" stroke="url(#paint30_linear_3302_2)" stroke-miterlimit="10"/>
<path d="M113.241 507.477C130.716 512.091 125.531 487.864 153.569 490.94C205.995 496.709 227.695 659.766 335.235 659.766C371.338 659.766 384.397 629.385 414.546 613.041C436.439 601.311 461.979 598.812 477.15 580.545C491.553 563.047 480.607 530.935 483.296 492.478C484.064 480.364 487.904 470.558 492.321 461.328C521.703 400.182 575.281 419.218 575.281 321.73C575.281 249.431 559.342 185.593 521.895 176.94C495.586 170.979 456.41 179.055 420.499 175.209C403.792 173.287 394.575 161.365 387.277 147.136C377.867 128.869 373.643 109.64 367.881 103.295C344.069 77.1444 298.556 63.4923 246.13 63.4923C185.255 63.4923 172.772 119.447 162.594 153.674C151.648 191.169 135.133 221.742 121.69 249.816C94.2292 307.886 65.9998 290.772 76.1777 387.491C77.1379 397.105 79.0583 409.796 80.7866 423.833C84.6274 455.175 85.5875 479.403 102.103 499.593C105.559 503.439 109.208 506.323 113.241 507.477Z" stroke="url(#paint31_linear_3302_2)" stroke-miterlimit="10"/>
<path d="M114.009 512.091C131.1 514.207 125.723 494.017 152.416 497.67C202.73 504.4 224.814 660.343 328.514 660.343C366.537 660.343 378.251 626.693 411.282 610.925C433.942 599.965 461.979 601.696 480.223 583.813C496.546 567.854 487.904 535.742 490.977 497.285C491.937 485.172 495.778 475.173 499.811 465.751C528.232 400.759 572.977 420.756 572.977 322.691C572.977 248.854 563.183 183.285 527.656 173.094C502.883 165.98 464.092 170.979 426.645 166.364C409.745 164.249 400.143 152.712 391.886 139.445C381.132 122.139 375.755 104.641 369.034 99.0648C342.532 77.1444 298.172 68.6839 245.362 68.6839C185.446 68.6839 170.468 118.293 158.753 150.789C146.079 185.977 128.412 217.32 115.737 247.701C90.0043 309.231 68.6882 293.464 80.2104 389.222C81.3626 399.221 83.283 411.911 85.0113 426.14C88.66 458.444 88.0839 481.518 104.023 503.823C106.519 507.284 110.168 509.976 114.009 512.091Z" stroke="url(#paint32_linear_3302_2)" stroke-miterlimit="10"/>
<path d="M114.585 516.706C130.716 519.014 125.915 500.362 151.072 504.208C199.273 511.899 221.933 660.919 321.408 660.919C361.544 660.919 371.722 624.001 407.633 608.618C430.869 598.619 461.403 604.196 482.911 586.698C500.963 572.084 494.626 539.973 498.082 501.708C499.234 489.786 502.883 479.595 506.724 469.981C533.993 400.951 569.904 422.102 569.904 323.268C569.904 247.893 566.063 180.593 532.649 169.056C509.22 160.98 470.813 162.519 432.022 157.135C415.122 154.827 404.944 143.675 395.727 131.369C383.82 115.025 376.907 99.2572 369.418 94.6424C340.42 76.9523 297.02 73.4911 243.826 73.4912C184.87 73.4912 167.395 116.563 153.952 147.521C139.55 180.401 120.922 212.513 108.824 245.201C84.8192 310.001 70.4165 295.772 83.283 390.568C84.6272 400.759 86.7396 413.642 88.2759 428.256C91.7326 461.521 89.6202 483.441 104.983 508.053C107.48 511.322 111.128 514.207 114.585 516.706Z" stroke="url(#paint33_linear_3302_2)" stroke-miterlimit="10"/>
<path d="M115.353 521.321C130.524 524.013 126.107 506.515 149.728 510.938C195.816 519.591 218.861 661.496 314.495 661.496C356.743 661.496 365.385 621.309 404.176 606.311C428.181 597.081 461.019 606.503 485.6 589.582C505.187 576.122 501.347 544.395 505.379 505.938C506.724 494.017 510.18 483.633 513.829 473.827C539.754 400.759 567.215 423.256 567.215 323.653C567.215 246.739 569.328 177.517 538.026 164.634C516.134 155.596 478.11 153.866 437.59 147.713C420.691 145.213 409.745 134.445 399.759 122.908C386.509 107.525 378.443 93.4887 369.802 89.643C338.308 75.9908 296.059 77.7213 242.289 77.7213C184.486 77.7213 164.514 114.448 149.151 143.675C133.212 174.056 113.241 207.129 101.91 241.932C79.6342 310.001 72.1447 297.31 86.5475 391.145C88.0838 401.528 90.1962 414.603 91.7325 429.409C94.9971 463.636 91.5404 484.403 106.135 511.13C108.632 515.36 111.896 518.629 115.353 521.321Z" stroke="url(#paint34_linear_3302_2)" stroke-miterlimit="10"/>
<path d="M115.929 525.744C130.14 528.628 126.299 512.668 148.383 517.475C192.552 527.09 215.98 661.881 307.39 661.881C351.558 661.881 358.664 618.232 400.528 603.811C425.108 595.35 460.443 608.618 488.288 592.466C509.604 580.16 508.068 548.625 512.677 510.361C514.021 498.439 517.67 488.056 520.743 477.865C545.515 400.759 564.143 424.41 564.143 324.23C564.143 245.778 572.208 174.825 543.211 160.404C522.663 150.212 485.216 145.213 443.16 138.483C426.26 135.791 414.738 125.408 403.984 114.832C389.389 100.411 380.172 87.9124 370.57 85.2204C336.771 75.6062 295.291 82.5284 241.137 82.5284C184.294 82.5284 162.018 112.717 144.735 140.406C127.259 168.48 106.135 202.322 95.3812 239.432C74.6413 310.77 74.4492 299.617 90.0042 392.683C91.7325 403.259 94.037 416.526 95.3812 431.524C98.4538 466.52 93.4609 486.325 107.48 515.168C109.592 519.398 112.665 522.859 115.929 525.744Z" stroke="url(#paint35_linear_3302_2)" stroke-miterlimit="10"/>
<path d="M116.505 530.358C129.756 533.627 126.299 518.821 147.039 524.205C189.287 534.973 212.908 662.65 300.476 662.65C346.757 662.65 352.326 615.54 397.263 601.696C422.612 594.004 460.251 610.925 491.361 595.543C514.213 584.198 515.173 553.24 520.166 514.783C521.703 503.054 525.159 492.478 528.04 482.095C551.468 400.951 561.646 425.756 561.646 324.999C561.646 245.009 575.665 172.133 548.78 156.365C529.768 145.213 492.705 136.945 448.921 129.253C432.021 126.177 419.731 116.563 408.209 106.564C392.27 93.104 381.9 82.3361 371.338 80.6055C335.043 74.6447 294.523 87.3355 239.985 87.3355C184.294 87.3355 159.521 110.986 140.318 137.137C121.306 162.711 98.8378 197.322 88.6599 236.74C69.6482 311.539 76.5616 301.732 93.2688 393.837C95.1891 404.604 97.4936 418.064 98.8378 433.447C101.718 469.404 95.3812 488.056 108.632 519.014C110.552 523.436 113.625 527.09 116.505 530.358Z" stroke="url(#paint36_linear_3302_2)" stroke-miterlimit="10"/>
<path d="M117.273 534.973C129.372 538.434 126.683 525.167 145.695 530.935C186.023 542.857 210.027 663.227 293.563 663.227C341.764 663.227 345.797 612.464 393.806 599.388C419.731 592.274 459.675 613.041 494.049 598.619C518.63 588.428 521.895 557.855 527.464 519.398C529.192 507.669 532.457 496.901 535.145 486.325C557.037 401.143 558.766 427.102 558.766 325.576C558.766 244.047 578.737 169.441 553.965 152.135C536.297 139.829 499.81 128.484 454.49 120.024C437.399 116.755 424.724 107.525 412.242 98.488C394.958 85.9895 383.436 76.7599 371.914 75.9907C333.315 73.6833 293.563 91.9503 238.641 91.9503C183.91 91.9503 157.025 109.256 135.709 133.676C115.353 157.135 91.3484 192.515 82.1307 234.048C64.6553 312.116 78.8661 303.848 96.9175 394.99C99.0299 405.95 101.526 419.603 102.679 435.178C105.367 472.096 97.8777 489.594 110.168 522.667C111.704 527.282 114.393 531.32 117.273 534.973Z" stroke="url(#paint37_linear_3302_2)" stroke-miterlimit="10"/>
<path d="M117.849 539.588C128.988 543.434 126.683 531.512 144.35 537.473C182.758 550.548 206.954 663.804 286.458 663.804C336.771 663.804 339.268 609.387 390.157 597.273C416.851 590.928 459.099 615.156 496.738 601.696C522.855 592.274 528.808 562.278 534.569 523.821C536.297 512.091 539.562 501.323 542.058 490.363C562.414 401.143 555.885 428.448 555.885 326.153C555.885 243.086 581.81 166.557 559.15 148.097C542.827 134.83 506.916 120.216 460.059 110.794C442.967 107.333 429.525 98.488 416.274 90.4121C397.647 78.875 384.972 71.1836 372.49 71.5682C331.202 72.9142 292.603 96.7575 237.296 96.7575C183.526 96.7575 154.528 107.525 131.1 130.407C109.4 151.558 83.8589 187.708 75.4093 231.549C59.4703 312.885 80.9784 306.155 100.182 396.336C102.679 407.681 104.983 421.333 106.135 437.101C108.632 474.981 99.798 491.325 111.128 526.513C112.664 531.32 115.353 535.55 117.849 539.588Z" stroke="url(#paint38_linear_3302_2)" stroke-miterlimit="10"/>
<path d="M118.618 544.011C128.796 548.049 127.067 537.857 143.006 544.011C179.493 558.24 204.074 664.188 279.544 664.188C331.97 664.188 332.739 606.118 386.701 594.774C413.97 589.005 458.715 616.886 499.618 604.58C527.464 596.12 535.721 566.7 542.059 528.243C543.979 516.514 547.051 505.554 549.356 494.594C568.175 401.336 553.197 429.794 553.197 326.922C553.197 242.317 585.075 163.865 564.527 144.059C549.74 129.638 514.213 111.948 465.628 101.757C448.537 98.1034 434.518 89.8351 420.307 82.3361C400.335 71.7604 386.509 65.6073 373.066 66.9533C329.282 71.7604 291.643 101.372 235.952 101.372C183.334 101.372 152.032 105.795 126.491 126.946C103.447 145.982 76.3696 182.516 68.4961 228.664C54.0933 313.269 83.0909 308.078 103.255 397.49C105.943 409.027 108.44 422.872 109.4 439.023C111.704 477.865 101.718 493.055 112.088 530.358C113.625 535.358 116.121 539.973 118.618 544.011Z" stroke="url(#paint39_linear_3302_2)" stroke-miterlimit="10"/>
<path d="M119.194 548.625C128.412 553.048 127.067 544.203 141.662 550.74C176.421 566.123 201.001 664.957 272.439 664.957C326.785 664.957 326.209 603.042 383.052 592.658C411.09 587.467 458.139 619.001 502.307 607.657C531.881 600.157 542.443 571.123 549.164 532.666C551.276 521.129 554.157 509.976 556.077 498.631C573.169 401.336 550.124 430.947 550.124 327.498C550.124 241.355 587.955 160.98 569.52 139.829C556.077 124.254 521.127 103.487 471.005 92.5271C453.914 88.6814 439.127 80.7978 424.34 74.2601C402.832 64.6459 387.853 60.0311 373.642 62.5308C327.17 70.9913 290.683 106.179 234.608 106.179C182.95 106.179 149.728 104.256 121.882 123.677C97.6857 140.598 68.8802 177.709 61.7748 226.165C48.7163 314.231 85.2033 310.385 106.711 398.836C109.592 410.565 112.28 424.602 113.049 440.946C114.969 480.749 103.831 494.786 113.433 534.204C114.777 539.396 116.889 544.203 119.194 548.625Z" stroke="url(#paint40_linear_3302_2)" stroke-miterlimit="10"/>
<path d="M119.962 553.24C128.219 557.855 127.451 550.741 140.51 557.471C173.348 574.199 198.121 665.342 265.526 665.342C321.984 665.342 319.68 599.581 379.595 590.159C408.209 585.736 457.946 620.54 504.995 610.541C536.489 603.811 549.164 575.545 556.461 537.088C558.574 525.551 561.454 514.207 563.183 502.67C578.545 401.336 547.243 432.101 547.243 327.883C547.243 240.202 591.028 157.904 574.705 135.407C562.798 118.87 528.04 94.8347 476.382 82.9131C459.099 78.8751 443.928 71.5683 428.181 65.6075C405.328 56.9547 389.197 53.6859 374.026 57.5316C324.673 69.4532 289.722 110.602 233.071 110.602C182.374 110.602 147.039 102.526 117.081 120.024C91.7325 134.83 61.1986 172.518 54.8614 223.088C43.3392 314.423 87.3156 311.924 109.784 399.605C112.857 411.527 115.545 425.756 116.313 442.485C118.042 483.249 105.751 496.132 114.393 537.665C115.737 543.434 117.849 548.433 119.962 553.24Z" stroke="url(#paint41_linear_3302_2)" stroke-miterlimit="10"/>
<path d="M120.538 557.855C127.835 562.854 127.643 557.278 138.973 564.008C170.083 582.275 195.048 665.919 258.612 665.919C316.991 665.919 313.343 596.312 376.139 587.851C405.52 584.006 457.562 622.27 507.876 613.425C541.098 607.657 556.077 579.775 563.951 541.318C566.255 529.781 568.944 518.437 570.48 506.707C584.114 401.336 544.747 433.447 544.747 328.46C544.747 239.24 594.484 155.019 580.466 131.176C569.904 113.486 535.721 86.5663 482.527 73.6833C465.244 69.453 449.305 62.7231 432.79 57.5314C408.593 50.0323 391.118 48.1095 374.987 52.9166C322.945 68.4916 289.146 115.217 231.919 115.217C182.374 115.217 144.927 100.988 112.664 116.563C85.9713 129.446 53.9012 167.518 48.3321 220.396C38.3462 315 89.8121 314.039 113.241 400.759C116.505 412.873 119.386 427.294 119.962 444.215C121.498 485.941 108.248 497.67 115.737 541.319C116.889 547.279 118.618 552.663 120.538 557.855Z" stroke="url(#paint42_linear_3302_2)" stroke-miterlimit="10"/>
<path d="M121.114 562.278C127.451 567.469 127.643 563.624 137.629 570.546C166.819 590.543 192.168 666.496 251.699 666.496C312.191 666.496 307.006 592.851 372.682 585.736C402.832 582.467 457.37 624.193 510.757 616.694C545.707 611.695 562.991 584.582 571.248 546.126C573.745 534.781 576.241 523.052 577.585 511.13C589.492 401.72 541.867 434.985 541.867 329.421C541.867 238.663 597.749 152.52 585.651 127.331C576.625 108.487 542.827 78.4904 487.904 64.646C470.621 60.2234 454.106 53.878 436.631 49.4555C411.09 42.9178 392.462 42.5332 375.371 48.494C320.448 67.5302 287.994 120.024 230.383 120.024C181.798 120.024 142.43 99.834 107.864 113.294C80.0184 124.062 46.2199 162.711 41.419 217.704C32.7773 315.769 91.9246 316.154 116.505 402.105C119.962 414.411 122.843 429.025 123.419 446.138C124.763 488.633 110.36 499.401 116.889 545.164C117.85 551.317 119.578 557.086 121.114 562.278Z" stroke="url(#paint43_linear_3302_2)" stroke-miterlimit="10"/>
<path d="M121.882 566.892C127.259 572.469 127.836 570.354 136.477 577.276C163.554 599.004 189.287 667.073 244.594 667.073C307.198 667.072 300.285 589.582 369.034 583.429C399.76 580.737 456.794 625.924 513.253 619.578C550.124 615.54 569.52 588.813 578.354 550.356C580.85 539.011 583.347 527.282 584.307 514.976C594.293 401.528 538.794 435.947 538.794 329.806C538.794 237.51 600.63 149.443 590.644 123.1C583.154 103.295 549.548 70.2222 493.281 55.4163C475.998 50.8015 458.715 45.033 440.471 41.3796C413.586 35.9956 393.614 36.957 375.755 43.8793C317.952 66.3765 286.842 124.639 228.847 124.639C181.414 124.639 139.934 98.488 103.255 109.833C74.4493 119.062 38.9226 158.096 34.8898 215.397C27.7845 316.731 94.4212 318.461 119.962 403.643C123.803 416.334 126.683 431.14 127.067 448.445C128.22 491.902 112.665 501.516 118.234 549.587C119.002 555.355 120.346 561.316 121.882 566.892Z" stroke="url(#paint44_linear_3302_2)" stroke-miterlimit="10"/>
<path d="M122.458 571.507C126.875 577.468 127.835 577.083 134.941 584.006C159.906 607.657 186.215 667.842 237.488 667.842C302.013 667.842 293.755 586.313 365.385 581.314C396.879 579.199 456.41 627.846 515.942 622.847C554.733 619.578 576.241 593.62 585.459 555.163C588.147 543.818 590.452 531.897 591.22 519.59C599.285 402.105 535.721 437.87 535.721 330.96C535.721 237.125 603.702 147.328 595.637 119.447C589.492 98.488 556.461 62.3385 498.658 46.7635C481.183 41.9564 463.516 36.7648 444.504 33.8805C416.274 29.458 394.958 31.9576 376.331 40.0336C315.647 66.1842 285.882 130.215 227.502 130.215C181.03 130.215 137.437 98.2957 98.6459 107.333C68.3041 114.448 31.241 153.674 27.9764 213.282C22.2153 318.077 96.5335 321.153 123.035 405.374C127.067 418.257 129.948 433.255 130.332 450.753C131.292 495.17 114.777 503.631 119.194 553.817C119.962 559.393 121.114 565.546 122.458 571.507Z" stroke="url(#paint45_linear_3302_2)" stroke-miterlimit="10"/>
<path d="M123.227 576.122C125.531 582.852 127.835 583.814 133.789 590.543C156.257 616.502 183.334 668.226 230.575 668.226C297.212 668.226 287.418 582.66 361.928 578.814C394.19 577.084 456.218 629.385 518.822 625.539C559.534 623.039 583.154 597.658 592.948 559.201C595.829 547.856 597.941 535.935 598.517 523.244C604.662 401.72 533.225 438.639 533.225 330.96C533.225 235.587 607.159 143.867 601.206 114.64C596.597 92.5272 563.951 53.4935 504.419 36.7648C486.944 31.9576 468.7 27.1505 448.729 24.8431C419.155 21.5743 396.687 25.42 377.099 34.6496C313.535 64.4537 285.113 134.061 226.35 134.061C180.838 134.061 135.133 96.1806 94.229 103.103C62.543 108.487 23.7516 148.097 21.4471 209.628C17.2223 317.692 99.222 322.115 126.683 405.566C130.908 418.641 133.789 433.832 134.173 451.522C134.749 496.901 117.273 504.4 120.73 556.509C121.114 563.431 120.922 570.161 123.227 576.122Z" stroke="url(#paint46_linear_3302_2)" stroke-miterlimit="10"/>
<path d="M123.803 580.737C125.531 587.467 127.835 590.543 132.444 597.273C152.032 625.539 180.453 668.803 223.854 668.803C292.411 668.803 281.273 579.006 358.663 576.507C391.694 575.353 456.218 631.115 521.895 628.616C564.527 626.885 590.26 602.273 600.438 563.816C603.318 552.663 605.431 540.549 605.815 527.474C609.847 402.105 530.536 439.985 530.536 331.729C530.536 234.817 610.616 141.175 606.583 110.602C603.51 87.5278 571.056 45.4175 510.18 27.7274C492.705 22.728 473.693 18.3054 452.953 16.9594C422.228 14.8443 398.223 20.036 377.867 30.227C311.422 63.4922 284.345 138.868 225.198 138.868C180.837 138.868 132.828 95.2191 89.8121 99.834C56.5897 103.295 16.4541 143.29 14.9178 207.129C12.0373 318.653 101.718 324.23 130.14 406.912C134.749 420.179 137.629 435.562 137.821 453.637C138.205 499.977 119.77 506.323 122.074 560.547C122.074 567.469 122.074 574.199 123.803 580.737Z" stroke="url(#paint47_linear_3302_2)" stroke-miterlimit="10"/>
<path d="M124.379 585.159C125.531 592.082 127.451 597.081 130.908 603.811C147.039 634.576 177.381 669.38 216.748 669.38C287.418 669.38 274.743 575.545 355.015 574.199C388.813 573.622 455.834 632.846 524.391 631.5C568.752 630.731 596.789 606.503 607.543 568.046C610.616 556.894 612.344 544.587 612.728 531.512C614.84 402.105 527.656 441.138 527.656 332.306C527.656 233.664 613.88 138.291 611.768 106.372C610.232 82.1438 578.161 36.957 515.557 18.3055C497.89 13.1138 478.494 9.26809 456.794 8.49895C424.724 7.34525 399.375 14.0752 378.251 25.4199C308.926 62.3385 283.193 143.29 223.662 143.29C180.261 143.29 129.948 93.8732 85.0112 96.1806C50.4446 97.9111 8.5806 138.099 8.0045 204.052C6.27617 318.846 104.023 325.768 133.212 407.873C138.013 421.333 140.894 436.908 141.086 455.175C141.278 502.477 121.882 507.669 123.034 564.008C123.227 571.507 123.227 578.429 124.379 585.159Z" stroke="url(#paint48_linear_3302_2)" stroke-miterlimit="10"/>
<path d="M125.147 589.774C128.412 631.5 167.203 669.957 209.643 669.957C282.425 669.957 268.214 572.084 351.366 572.084C385.933 572.084 455.45 634.769 527.08 634.769C586.803 634.769 619.641 595.735 619.641 535.935C619.641 402.682 524.583 442.869 524.583 333.267C524.583 233.087 616.761 135.983 616.761 102.718C616.761 70.6068 564.911 0.999909 460.635 0.999914C317.76 0.99992 300.476 148.674 222.126 148.674C179.877 148.674 127.259 93.4887 80.2104 93.4887C44.1075 93.4887 0.899298 133.868 0.899301 202.129C0.899307 340.189 144.351 328.268 144.351 457.867C144.351 506.131 123.995 510.361 123.995 568.623C124.187 575.545 124.571 582.66 125.147 589.774Z" stroke="url(#paint49_linear_3302_2)" stroke-miterlimit="10"/>
</g>
<defs>
<linearGradient id="paint0_linear_3302_2" x1="325.054" y1="656.345" x2="325.054" y2="35.5215" gradientUnits="userSpaceOnUse">
<stop stop-color="#FFD110" stop-opacity="0"/>
<stop offset="0.286458" stop-color="#109BFF"/>
<stop offset="0.614583" stop-color="#FF0469"/>
<stop offset="1" stop-color="#04DA00" stop-opacity="0"/>
</linearGradient>
<linearGradient id="paint1_linear_3302_2" x1="325.032" y1="656.921" x2="325.032" y2="40.3279" gradientUnits="userSpaceOnUse">
<stop stop-color="#FFD110" stop-opacity="0"/>
<stop offset="0.286458" stop-color="#109BFF"/>
<stop offset="0.614583" stop-color="#FF0469"/>
<stop offset="1" stop-color="#04DA00" stop-opacity="0"/>
</linearGradient>
<linearGradient id="paint2_linear_3302_2" x1="324.958" y1="657.498" x2="324.958" y2="44.9421" gradientUnits="userSpaceOnUse">
<stop stop-color="#FFD110" stop-opacity="0"/>
<stop offset="0.286458" stop-color="#109BFF"/>
<stop offset="0.614583" stop-color="#FF0469"/>
<stop offset="1" stop-color="#04DA00" stop-opacity="0"/>
</linearGradient>
<linearGradient id="paint3_linear_3302_2" x1="325.519" y1="658.074" x2="325.519" y2="49.9408" gradientUnits="userSpaceOnUse">
<stop stop-color="#FFD110" stop-opacity="0"/>
<stop offset="0.286458" stop-color="#109BFF"/>
<stop offset="0.614583" stop-color="#FF0469"/>
<stop offset="1" stop-color="#04DA00" stop-opacity="0"/>
</linearGradient>
<linearGradient id="paint4_linear_3302_2" x1="325.518" y1="658.651" x2="325.518" y2="54.1705" gradientUnits="userSpaceOnUse">
<stop stop-color="#FFD110" stop-opacity="0"/>
<stop offset="0.286458" stop-color="#109BFF"/>
<stop offset="0.614583" stop-color="#FF0469"/>
<stop offset="1" stop-color="#04DA00" stop-opacity="0"/>
</linearGradient>
<linearGradient id="paint5_linear_3302_2" x1="325.442" y1="659.227" x2="325.442" y2="58.9767" gradientUnits="userSpaceOnUse">
<stop stop-color="#FFD110" stop-opacity="0"/>
<stop offset="0.286458" stop-color="#109BFF"/>
<stop offset="0.614583" stop-color="#FF0469"/>
<stop offset="1" stop-color="#04DA00" stop-opacity="0"/>
</linearGradient>
<linearGradient id="paint6_linear_3302_2" x1="324.665" y1="659.804" x2="324.664" y2="63.5911" gradientUnits="userSpaceOnUse">
<stop stop-color="#FFD110" stop-opacity="0"/>
<stop offset="0.286458" stop-color="#109BFF"/>
<stop offset="0.614583" stop-color="#FF0469"/>
<stop offset="1" stop-color="#04DA00" stop-opacity="0"/>
</linearGradient>
<linearGradient id="paint7_linear_3302_2" x1="324.988" y1="660.381" x2="324.988" y2="68.7819" gradientUnits="userSpaceOnUse">
<stop stop-color="#FFD110" stop-opacity="0"/>
<stop offset="0.286458" stop-color="#109BFF"/>
<stop offset="0.614583" stop-color="#FF0469"/>
<stop offset="1" stop-color="#04DA00" stop-opacity="0"/>
</linearGradient>
<linearGradient id="paint8_linear_3302_2" x1="324.183" y1="660.957" x2="324.183" y2="73.5884" gradientUnits="userSpaceOnUse">
<stop stop-color="#FFD110" stop-opacity="0"/>
<stop offset="0.286458" stop-color="#109BFF"/>
<stop offset="0.614583" stop-color="#FF0469"/>
<stop offset="1" stop-color="#04DA00" stop-opacity="0"/>
</linearGradient>
<linearGradient id="paint9_linear_3302_2" x1="323.203" y1="661.534" x2="323.203" y2="77.7473" gradientUnits="userSpaceOnUse">
<stop stop-color="#FFD110" stop-opacity="0"/>
<stop offset="0.286458" stop-color="#109BFF"/>
<stop offset="0.614583" stop-color="#FF0469"/>
<stop offset="1" stop-color="#04DA00" stop-opacity="0"/>
</linearGradient>
<linearGradient id="paint10_linear_3302_2" x1="322.085" y1="661.918" x2="322.085" y2="80.2138" gradientUnits="userSpaceOnUse">
<stop stop-color="#FFD110" stop-opacity="0"/>
<stop offset="0.286458" stop-color="#109BFF"/>
<stop offset="0.614583" stop-color="#FF0469"/>
<stop offset="1" stop-color="#04DA00" stop-opacity="0"/>
</linearGradient>
<linearGradient id="paint11_linear_3302_2" x1="321.262" y1="662.688" x2="321.262" y2="79.1095" gradientUnits="userSpaceOnUse">
<stop stop-color="#FFD110" stop-opacity="0"/>
<stop offset="0.286458" stop-color="#109BFF"/>
<stop offset="0.614583" stop-color="#FF0469"/>
<stop offset="1" stop-color="#04DA00" stop-opacity="0"/>
</linearGradient>
<linearGradient id="paint12_linear_3302_2" x1="320.272" y1="663.265" x2="320.272" y2="75.8865" gradientUnits="userSpaceOnUse">
<stop stop-color="#FFD110" stop-opacity="0"/>
<stop offset="0.286458" stop-color="#109BFF"/>
<stop offset="0.614583" stop-color="#FF0469"/>
<stop offset="1" stop-color="#04DA00" stop-opacity="0"/>
</linearGradient>
<linearGradient id="paint13_linear_3302_2" x1="319.143" y1="663.842" x2="319.143" y2="71.6525" gradientUnits="userSpaceOnUse">
<stop stop-color="#FFD110" stop-opacity="0"/>
<stop offset="0.286458" stop-color="#109BFF"/>
<stop offset="0.614583" stop-color="#FF0469"/>
<stop offset="1" stop-color="#04DA00" stop-opacity="0"/>
</linearGradient>
<linearGradient id="paint14_linear_3302_2" x1="318.026" y1="664.227" x2="318.026" y2="66.8688" gradientUnits="userSpaceOnUse">
<stop stop-color="#FFD110" stop-opacity="0"/>
<stop offset="0.286458" stop-color="#109BFF"/>
<stop offset="0.614583" stop-color="#FF0469"/>
<stop offset="1" stop-color="#04DA00" stop-opacity="0"/>
</linearGradient>
<linearGradient id="paint15_linear_3302_2" x1="316.801" y1="664.996" x2="316.801" y2="61.96" gradientUnits="userSpaceOnUse">
<stop stop-color="#FFD110" stop-opacity="0"/>
<stop offset="0.286458" stop-color="#109BFF"/>
<stop offset="0.614583" stop-color="#FF0469"/>
<stop offset="1" stop-color="#04DA00" stop-opacity="0"/>
</linearGradient>
<linearGradient id="paint16_linear_3302_2" x1="315.658" y1="665.381" x2="315.658" y2="56.0375" gradientUnits="userSpaceOnUse">
<stop stop-color="#FFD110" stop-opacity="0"/>
<stop offset="0.286458" stop-color="#109BFF"/>
<stop offset="0.614583" stop-color="#FF0469"/>
<stop offset="1" stop-color="#04DA00" stop-opacity="0"/>
</linearGradient>
<linearGradient id="paint17_linear_3302_2" x1="315.007" y1="665.958" x2="315.007" y2="50.3882" gradientUnits="userSpaceOnUse">
<stop stop-color="#FFD110" stop-opacity="0"/>
<stop offset="0.286458" stop-color="#109BFF"/>
<stop offset="0.614583" stop-color="#FF0469"/>
<stop offset="1" stop-color="#04DA00" stop-opacity="0"/>
</linearGradient>
<linearGradient id="paint18_linear_3302_2" x1="313.962" y1="666.536" x2="313.962" y2="44.3773" gradientUnits="userSpaceOnUse">
<stop stop-color="#FFD110" stop-opacity="0"/>
<stop offset="0.286458" stop-color="#109BFF"/>
<stop offset="0.614583" stop-color="#FF0469"/>
<stop offset="1" stop-color="#04DA00" stop-opacity="0"/>
</linearGradient>
<linearGradient id="paint19_linear_3302_2" x1="313.046" y1="667.113" x2="313.046" y2="38.0277" gradientUnits="userSpaceOnUse">
<stop stop-color="#FFD110" stop-opacity="0"/>
<stop offset="0.286458" stop-color="#109BFF"/>
<stop offset="0.614583" stop-color="#FF0469"/>
<stop offset="1" stop-color="#04DA00" stop-opacity="0"/>
</linearGradient>
<linearGradient id="paint20_linear_3302_2" x1="311.978" y1="667.883" x2="311.978" y2="31.8207" gradientUnits="userSpaceOnUse">
<stop stop-color="#FFD110" stop-opacity="0"/>
<stop offset="0.286458" stop-color="#109BFF"/>
<stop offset="0.614583" stop-color="#FF0469"/>
<stop offset="1" stop-color="#04DA00" stop-opacity="0"/>
</linearGradient>
<linearGradient id="paint21_linear_3302_2" x1="311.415" y1="668.268" x2="311.415" y2="23.8016" gradientUnits="userSpaceOnUse">
<stop stop-color="#FFD110" stop-opacity="0"/>
<stop offset="0.286458" stop-color="#109BFF"/>
<stop offset="0.614583" stop-color="#FF0469"/>
<stop offset="1" stop-color="#04DA00" stop-opacity="0"/>
</linearGradient>
<linearGradient id="paint22_linear_3302_2" x1="310.787" y1="668.845" x2="310.787" y2="16.601" gradientUnits="userSpaceOnUse">
<stop stop-color="#FFD110" stop-opacity="0"/>
<stop offset="0.286458" stop-color="#109BFF"/>
<stop offset="0.614583" stop-color="#FF0469"/>
<stop offset="1" stop-color="#04DA00" stop-opacity="0"/>
</linearGradient>
<linearGradient id="paint23_linear_3302_2" x1="310.371" y1="669.423" x2="310.371" y2="8.4805" gradientUnits="userSpaceOnUse">
<stop stop-color="#FFD110" stop-opacity="0"/>
<stop offset="0.286458" stop-color="#109BFF"/>
<stop offset="0.614583" stop-color="#FF0469"/>
<stop offset="1" stop-color="#04DA00" stop-opacity="0"/>
</linearGradient>
<linearGradient id="paint24_linear_3302_2" x1="310.267" y1="670" x2="310.267" y2="1.11072" gradientUnits="userSpaceOnUse">
<stop stop-color="#FFD110" stop-opacity="0"/>
<stop offset="0.286458" stop-color="#109BFF"/>
<stop offset="0.614583" stop-color="#FF0469"/>
<stop offset="1" stop-color="#04DA00" stop-opacity="0"/>
</linearGradient>
<linearGradient id="paint25_linear_3302_2" x1="325.054" y1="656.345" x2="325.054" y2="35.5215" gradientUnits="userSpaceOnUse">
<stop stop-color="#FFD110" stop-opacity="0"/>
<stop offset="0.286458" stop-color="#109BFF"/>
<stop offset="0.614583" stop-color="#FF0469"/>
<stop offset="1" stop-color="#04DA00" stop-opacity="0"/>
</linearGradient>
<linearGradient id="paint26_linear_3302_2" x1="325.032" y1="656.921" x2="325.032" y2="40.3279" gradientUnits="userSpaceOnUse">
<stop stop-color="#FFD110" stop-opacity="0"/>
<stop offset="0.286458" stop-color="#109BFF"/>
<stop offset="0.614583" stop-color="#FF0469"/>
<stop offset="1" stop-color="#04DA00" stop-opacity="0"/>
</linearGradient>
<linearGradient id="paint27_linear_3302_2" x1="324.958" y1="657.498" x2="324.958" y2="44.9421" gradientUnits="userSpaceOnUse">
<stop stop-color="#FFD110" stop-opacity="0"/>
<stop offset="0.286458" stop-color="#109BFF"/>
<stop offset="0.614583" stop-color="#FF0469"/>
<stop offset="1" stop-color="#04DA00" stop-opacity="0"/>
</linearGradient>
<linearGradient id="paint28_linear_3302_2" x1="325.519" y1="658.074" x2="325.519" y2="49.9408" gradientUnits="userSpaceOnUse">
<stop stop-color="#FFD110" stop-opacity="0"/>
<stop offset="0.286458" stop-color="#109BFF"/>
<stop offset="0.614583" stop-color="#FF0469"/>
<stop offset="1" stop-color="#04DA00" stop-opacity="0"/>
</linearGradient>
<linearGradient id="paint29_linear_3302_2" x1="325.518" y1="658.651" x2="325.518" y2="54.1705" gradientUnits="userSpaceOnUse">
<stop stop-color="#FFD110" stop-opacity="0"/>
<stop offset="0.286458" stop-color="#109BFF"/>
<stop offset="0.614583" stop-color="#FF0469"/>
<stop offset="1" stop-color="#04DA00" stop-opacity="0"/>
</linearGradient>
<linearGradient id="paint30_linear_3302_2" x1="325.442" y1="659.227" x2="325.442" y2="58.9767" gradientUnits="userSpaceOnUse">
<stop stop-color="#FFD110" stop-opacity="0"/>
<stop offset="0.286458" stop-color="#109BFF"/>
<stop offset="0.614583" stop-color="#FF0469"/>
<stop offset="1" stop-color="#04DA00" stop-opacity="0"/>
</linearGradient>
<linearGradient id="paint31_linear_3302_2" x1="324.665" y1="659.804" x2="324.664" y2="63.5911" gradientUnits="userSpaceOnUse">
<stop stop-color="#FFD110" stop-opacity="0"/>
<stop offset="0.286458" stop-color="#109BFF"/>
<stop offset="0.614583" stop-color="#FF0469"/>
<stop offset="1" stop-color="#04DA00" stop-opacity="0"/>
</linearGradient>
<linearGradient id="paint32_linear_3302_2" x1="324.988" y1="660.381" x2="324.988" y2="68.7819" gradientUnits="userSpaceOnUse">
<stop stop-color="#FFD110" stop-opacity="0"/>
<stop offset="0.286458" stop-color="#109BFF"/>
<stop offset="0.614583" stop-color="#FF0469"/>
<stop offset="1" stop-color="#04DA00" stop-opacity="0"/>
</linearGradient>
<linearGradient id="paint33_linear_3302_2" x1="324.183" y1="660.957" x2="324.183" y2="73.5884" gradientUnits="userSpaceOnUse">
<stop stop-color="#FFD110" stop-opacity="0"/>
<stop offset="0.286458" stop-color="#109BFF"/>
<stop offset="0.614583" stop-color="#FF0469"/>
<stop offset="1" stop-color="#04DA00" stop-opacity="0"/>
</linearGradient>
<linearGradient id="paint34_linear_3302_2" x1="323.203" y1="661.534" x2="323.203" y2="77.7473" gradientUnits="userSpaceOnUse">
<stop stop-color="#FFD110" stop-opacity="0"/>
<stop offset="0.286458" stop-color="#109BFF"/>
<stop offset="0.614583" stop-color="#FF0469"/>
<stop offset="1" stop-color="#04DA00" stop-opacity="0"/>
</linearGradient>
<linearGradient id="paint35_linear_3302_2" x1="322.085" y1="661.918" x2="322.085" y2="80.2138" gradientUnits="userSpaceOnUse">
<stop stop-color="#FFD110" stop-opacity="0"/>
<stop offset="0.286458" stop-color="#109BFF"/>
<stop offset="0.614583" stop-color="#FF0469"/>
<stop offset="1" stop-color="#04DA00" stop-opacity="0"/>
</linearGradient>
<linearGradient id="paint36_linear_3302_2" x1="321.262" y1="662.688" x2="321.262" y2="79.1095" gradientUnits="userSpaceOnUse">
<stop stop-color="#FFD110" stop-opacity="0"/>
<stop offset="0.286458" stop-color="#109BFF"/>
<stop offset="0.614583" stop-color="#FF0469"/>
<stop offset="1" stop-color="#04DA00" stop-opacity="0"/>
</linearGradient>
<linearGradient id="paint37_linear_3302_2" x1="320.272" y1="663.265" x2="320.272" y2="75.8865" gradientUnits="userSpaceOnUse">
<stop stop-color="#FFD110" stop-opacity="0"/>
<stop offset="0.286458" stop-color="#109BFF"/>
<stop offset="0.614583" stop-color="#FF0469"/>
<stop offset="1" stop-color="#04DA00" stop-opacity="0"/>
</linearGradient>
<linearGradient id="paint38_linear_3302_2" x1="319.143" y1="663.842" x2="319.143" y2="71.6525" gradientUnits="userSpaceOnUse">
<stop stop-color="#FFD110" stop-opacity="0"/>
<stop offset="0.286458" stop-color="#109BFF"/>
<stop offset="0.614583" stop-color="#FF0469"/>
<stop offset="1" stop-color="#04DA00" stop-opacity="0"/>
</linearGradient>
<linearGradient id="paint39_linear_3302_2" x1="318.026" y1="664.227" x2="318.026" y2="66.8688" gradientUnits="userSpaceOnUse">
<stop stop-color="#FFD110" stop-opacity="0"/>
<stop offset="0.286458" stop-color="#109BFF"/>
<stop offset="0.614583" stop-color="#FF0469"/>
<stop offset="1" stop-color="#04DA00" stop-opacity="0"/>
</linearGradient>
<linearGradient id="paint40_linear_3302_2" x1="316.801" y1="664.996" x2="316.801" y2="61.96" gradientUnits="userSpaceOnUse">
<stop stop-color="#FFD110" stop-opacity="0"/>
<stop offset="0.286458" stop-color="#109BFF"/>
<stop offset="0.614583" stop-color="#FF0469"/>
<stop offset="1" stop-color="#04DA00" stop-opacity="0"/>
</linearGradient>
<linearGradient id="paint41_linear_3302_2" x1="315.658" y1="665.381" x2="315.658" y2="56.0375" gradientUnits="userSpaceOnUse">
<stop stop-color="#FFD110" stop-opacity="0"/>
<stop offset="0.286458" stop-color="#109BFF"/>
<stop offset="0.614583" stop-color="#FF0469"/>
<stop offset="1" stop-color="#04DA00" stop-opacity="0"/>
</linearGradient>
<linearGradient id="paint42_linear_3302_2" x1="315.007" y1="665.958" x2="315.007" y2="50.3882" gradientUnits="userSpaceOnUse">
<stop stop-color="#FFD110" stop-opacity="0"/>
<stop offset="0.286458" stop-color="#109BFF"/>
<stop offset="0.614583" stop-color="#FF0469"/>
<stop offset="1" stop-color="#04DA00" stop-opacity="0"/>
</linearGradient>
<linearGradient id="paint43_linear_3302_2" x1="313.962" y1="666.536" x2="313.962" y2="44.3773" gradientUnits="userSpaceOnUse">
<stop stop-color="#FFD110" stop-opacity="0"/>
<stop offset="0.286458" stop-color="#109BFF"/>
<stop offset="0.614583" stop-color="#FF0469"/>
<stop offset="1" stop-color="#04DA00" stop-opacity="0"/>
</linearGradient>
<linearGradient id="paint44_linear_3302_2" x1="313.046" y1="667.113" x2="313.046" y2="38.0277" gradientUnits="userSpaceOnUse">
<stop stop-color="#FFD110" stop-opacity="0"/>
<stop offset="0.286458" stop-color="#109BFF"/>
<stop offset="0.614583" stop-color="#FF0469"/>
<stop offset="1" stop-color="#04DA00" stop-opacity="0"/>
</linearGradient>
<linearGradient id="paint45_linear_3302_2" x1="311.978" y1="667.883" x2="311.978" y2="31.8207" gradientUnits="userSpaceOnUse">
<stop stop-color="#FFD110" stop-opacity="0"/>
<stop offset="0.286458" stop-color="#109BFF"/>
<stop offset="0.614583" stop-color="#FF0469"/>
<stop offset="1" stop-color="#04DA00" stop-opacity="0"/>
</linearGradient>
<linearGradient id="paint46_linear_3302_2" x1="311.415" y1="668.268" x2="311.415" y2="23.8016" gradientUnits="userSpaceOnUse">
<stop stop-color="#FFD110" stop-opacity="0"/>
<stop offset="0.286458" stop-color="#109BFF"/>
<stop offset="0.614583" stop-color="#FF0469"/>
<stop offset="1" stop-color="#04DA00" stop-opacity="0"/>
</linearGradient>
<linearGradient id="paint47_linear_3302_2" x1="310.787" y1="668.845" x2="310.787" y2="16.601" gradientUnits="userSpaceOnUse">
<stop stop-color="#FFD110" stop-opacity="0"/>
<stop offset="0.286458" stop-color="#109BFF"/>
<stop offset="0.614583" stop-color="#FF0469"/>
<stop offset="1" stop-color="#04DA00" stop-opacity="0"/>
</linearGradient>
<linearGradient id="paint48_linear_3302_2" x1="310.371" y1="669.423" x2="310.371" y2="8.4805" gradientUnits="userSpaceOnUse">
<stop stop-color="#FFD110" stop-opacity="0"/>
<stop offset="0.286458" stop-color="#109BFF"/>
<stop offset="0.614583" stop-color="#FF0469"/>
<stop offset="1" stop-color="#04DA00" stop-opacity="0"/>
</linearGradient>
<linearGradient id="paint49_linear_3302_2" x1="310.267" y1="670" x2="310.267" y2="1.11072" gradientUnits="userSpaceOnUse">
<stop stop-color="#FFD110" stop-opacity="0"/>
<stop offset="0.286458" stop-color="#109BFF"/>
<stop offset="0.614583" stop-color="#FF0469"/>
<stop offset="1" stop-color="#04DA00" stop-opacity="0"/>
</linearGradient>
</defs>
</svg>
