<svg width="335" height="996" viewBox="0 0 335 996" fill="none" xmlns="http://www.w3.org/2000/svg">
<path opacity="0.33" fill-rule="evenodd" clip-rule="evenodd" d="M315.757 7.40084L318.234 8.06466C343.849 15.1694 367.745 26.883 389.594 42.6344C412.449 59.1381 431.394 79.4219 445.874 102.854C478.973 155.898 486.87 221.016 468.492 291.406C430.266 438.558 508.66 577.608 571.884 689.749L572.455 690.762C601.187 741.187 628.209 788.981 640.19 829.848C653.623 875.208 647.861 908.424 621.801 934.512C594.479 961.71 557.239 979.974 510.489 988.69C473.322 995.87 430.321 996.9 382.386 992.021C305.125 984.129 240.384 962.684 233.049 960.254C232.644 960.12 232.414 960.044 232.367 960.031C189.629 942.062 152.228 919.488 121.395 893.122C92.5128 868.486 68.3363 839.8 49.871 807.817L49.8698 807.815C48.7161 805.816 47.5626 803.818 46.634 801.88C82.3177 865.996 141.232 920.887 232.548 959.356C232.612 959.373 232.893 959.465 233.381 959.624C241.426 962.254 305.741 983.278 382.341 991.285C457.488 999.11 559.864 995.402 621.471 933.941C647.185 908.243 653.173 875.087 639.679 829.953C627.473 789.025 600.676 741.291 572.17 690.927C540.202 634.566 504.232 570.615 481.378 503.661C456.551 430.649 451.379 364.422 465.535 301.603C429.708 442.636 505.03 575.956 565.692 683.326L565.692 683.326L565.901 683.695L567.376 686.321L568.393 688.132C594.77 735.076 619.641 779.34 630.953 817.476C643.622 861.183 637.937 893.212 613.14 918.19C586.855 944.218 550.983 961.883 506.276 970.18C470.417 976.987 429.112 977.989 383.039 973.368C308.456 965.586 245.667 944.933 239.438 942.885L239.437 942.884C239.136 942.785 238.968 942.73 238.936 942.721C197.94 925.46 161.995 903.759 132.332 878.431C104.62 854.833 81.3884 827.124 63.5223 796.508C57.2573 785.657 51.5633 774.475 46.5009 762.739C78.6889 836.298 138.254 899.571 239.117 942.046C239.183 942.063 239.461 942.154 239.943 942.311C247.788 944.869 309.539 965.002 382.995 972.632C455.093 980.122 553.563 976.575 612.585 917.559C637.321 892.806 642.947 861.002 630.157 817.745C618.489 778.41 592.621 732.615 565.269 684.25C534.62 630.173 499.909 568.732 478.089 504.228C455.411 437.191 449.733 376.093 461.058 318.25C431.34 450.743 502.107 575.882 559.285 676.854C585.648 723.506 610.362 767.302 621.716 805.104C634.132 847.053 628.808 877.732 604.824 901.479C579.742 926.622 545.298 943.463 502.348 951.507C468.021 957.999 428.189 958.913 384.263 954.385C312.638 946.927 252.626 927.23 246.573 925.243L246.573 925.243C246.275 925.146 246.108 925.091 246.077 925.082C232.329 919.262 219.215 912.957 206.746 906.174C218.998 912.77 231.902 918.935 245.461 924.676C245.568 924.705 245.948 924.825 246.59 925.027C250.026 926.109 260.941 929.548 277.261 933.921C302.71 940.74 341.134 949.587 383.648 953.979C452.698 961.135 547.038 957.688 603.698 901.177C627.457 877.37 632.72 846.917 620.409 805.478C609.63 768.922 585.895 726.63 560.664 681.672L560.663 681.672L559.545 679.679L558.204 677.288L556.442 674.157C527.606 622.922 495.225 565.387 474.574 504.735C452.483 439.616 447.338 380.656 458.546 324.549C428.778 452.209 497 572.953 552.159 670.116L553.653 672.781L554.558 674.396L554.617 674.501C578.701 717.47 601.441 758.039 611.683 793.001C623.62 833.133 618.433 862.399 595.366 885.427C571.322 909.399 538.245 925.641 497.053 933.432C464.258 939.611 426.063 940.722 383.835 936.166C314.866 929.036 256.935 909.749 251.967 908.095C251.758 908.025 251.642 907.987 251.624 907.982C178.788 877.12 124.518 831.922 90.5991 773.831C61.522 723.797 46.5462 662.574 46.2108 591.757C45.4503 462.168 92.4014 323.88 126.737 222.765C127.82 219.529 128.897 216.319 129.963 213.14L129.964 213.136L129.965 213.133L129.967 213.129L129.968 213.125C137.223 191.494 144.01 171.258 149.333 153.747C161.004 115.597 185.459 87.3894 220.096 72.5314C251.142 59.3663 288.332 57.5032 325.267 67.4L327.519 68.0035C373.958 81.1708 415.074 111.499 440.018 151.736C466.643 194.544 474.859 246.08 463.839 301.907C496.085 164.171 414.712 74.2078 323.998 48.7145L321.746 48.111C269.173 34.0242 207.317 41.8135 168.54 84.1703C180.719 70.6431 195.682 59.9802 213.137 52.5624C244.588 38.782 283.415 37.1161 322.152 47.4957L324.63 48.1595C373.32 61.9304 416.222 93.7027 442.215 135.428C470.316 180.463 478.564 234.87 466.824 293.546C500.988 149.47 415.977 55.4788 321.108 28.8699L318.856 28.2664C246.111 8.77453 156.061 29.5442 128.27 121.55C122.39 141.084 114.7 163.785 106.515 187.947L106.515 187.948L106.514 187.949C105.527 190.864 104.533 193.799 103.533 196.753C67.7987 301.897 21.0406 440.243 15.8607 572.416C20.8075 439.921 67.619 301.499 102.473 198.434L102.474 198.434L102.474 198.432L103.083 196.633C104.073 193.706 105.058 190.798 106.036 187.91L106.063 187.832C114.248 163.668 121.939 140.965 127.82 121.43C140.456 79.6755 166.987 49.1276 204.809 33.192C238.2 18.4827 278.559 16.5032 318.872 27.3052L321.35 27.9691C372.067 42.283 416.755 75.4993 443.962 118.998C474.244 167.671 482.543 226.953 468.121 290.977C507.952 137.249 418.356 36.8225 318.053 8.74035L315.576 8.07652C239.903 -12.1999 146.217 9.52668 117.175 105.301C110.344 128.093 101.18 155.087 91.3682 183.597L91 184.686L90.9998 184.686C55.0387 291.004 8.20105 429.478 0.541522 563.106C7.97471 428.786 54.8412 289.764 90.0745 185.249L90.6926 183.416C92.0079 179.496 93.3153 175.605 94.6104 171.752C102.754 147.518 110.411 124.732 116.5 105.12C129.558 61.7896 157.352 30.1317 196.663 13.1465C231.585 -1.87644 273.867 -3.82359 315.757 7.40084ZM15.4105 601.132C15.3273 591.603 15.4841 582.026 15.8607 572.416C15.5353 581.133 15.391 589.825 15.4433 598.479C15.4285 599.363 15.4175 600.247 15.4105 601.132ZM15.8396 618.621C15.603 612.812 15.4616 606.981 15.4105 601.132C15.3644 606.988 15.4942 612.866 15.8396 618.621ZM138.975 137.454C145.585 115.675 155.821 98.0634 168.54 84.1703C155.439 98.7207 145.559 116.585 139.26 137.289C132.912 158.279 124.577 183.081 115.594 209.4C79.8261 314.959 30.96 459.493 31.6235 594.849C32.0753 668.836 47.5735 732.612 77.9697 784.931C106.927 834.816 150.202 875.413 206.746 906.174C89.9061 843.271 32.3641 741.211 31.3982 594.789C30.6745 459.658 79.5405 315.124 115.308 209.564C124.291 183.246 132.626 158.444 138.975 137.454ZM384.076 935.265C343.424 931.131 306.577 922.706 282.254 916.189C270.363 913.003 261.467 910.219 256.562 908.684C253.849 907.835 252.357 907.368 252.256 907.427C115.23 849.468 48.2479 746.31 47.3972 591.834C46.8016 462.53 93.5274 324.182 127.863 223.067C128.682 220.624 129.499 218.191 130.311 215.772L130.312 215.769C137.82 193.407 144.949 172.176 150.46 154.049C175.973 69.6401 258.587 50.4987 325.251 68.3612L327.278 68.9043C412.884 93.0108 489.538 176.698 462.472 305.085C471.125 254.297 462.909 207.293 438.556 168C414.542 129.702 375.332 100.367 330.86 87.9681L328.608 87.3647C293.249 77.8903 257.531 79.6651 228.528 92.4121C195.319 106.446 171.962 133.258 160.939 169.892C155.853 186.531 149.363 205.697 142.411 226.228L142.411 226.229L142.41 226.23L142.41 226.231C141.346 229.376 140.27 232.552 139.187 235.756L138.852 236.747L138.852 236.748C106.263 333.168 61.7004 465.014 62.3305 588.352C62.3909 596.422 62.6474 604.365 63.1 612.178C69.4591 732.313 121.031 817.695 219.793 871.752C232.06 878.551 245.033 884.826 258.704 890.567C258.737 890.576 258.908 890.633 259.21 890.732C265.042 892.655 320.001 910.778 385.224 917.468C425.59 921.767 461.803 920.849 493.35 914.818C532.724 907.506 564.148 892.028 587.215 869.001C609.02 847.083 614.13 819.003 602.671 780.69C592.563 746.641 570.344 707.245 546.728 665.373L545.544 663.274C494.082 572.555 430.729 460.633 454.35 341.827C445.789 392.78 451.36 446.577 471.284 505.301C491.383 564.517 523.126 620.818 551.303 670.611L552.458 672.656C577.235 716.542 600.458 757.674 610.887 793.271C622.659 833.117 617.533 862.158 594.811 884.795C540.737 938.861 450.303 942.148 384.076 935.265ZM258.089 890.161C244.617 884.488 231.853 878.354 219.793 871.752C169.367 843.809 130.861 807.031 104.821 762.193C80.3825 720.153 66.4316 669.697 63.1 612.178C62.6961 604.547 62.4745 596.775 62.4349 588.863C61.7447 465.75 106.307 333.904 138.896 237.484L138.896 237.484L139.231 236.492C147.611 212.426 155.178 189.591 161.043 170.403C185.306 89.7622 264.284 71.5777 328.02 88.6557L330.047 89.1988C411.665 112.001 484.766 191.835 459.298 314.161C467.385 265.945 459.695 221.238 436.419 184.083C413.619 147.559 376.195 119.668 333.75 107.812L331.723 107.269C297.94 98.2172 264.145 100.024 235.609 111.931C203.992 125.426 181.673 151.067 171.133 185.9C165.448 204.412 158.243 225.896 150.39 248.897L150.388 248.905C119.203 340.966 76.4741 467.105 77.2033 585.095C77.7565 649.695 91.2969 705.463 117.736 750.929C148.627 804.104 197.931 845.316 264.537 873.302C264.558 873.307 264.627 873.33 264.744 873.368C264.821 873.393 264.919 873.426 265.037 873.464C270.684 875.322 322.871 892.492 385.141 898.859C423.42 902.839 458.161 902.01 488.176 896.293C525.567 889.173 555.563 874.52 577.593 852.663C598.645 831.751 603.168 804.962 592.473 768.301C582.9 735.836 561.822 698.422 539.354 658.539L538.193 656.477L538.056 656.235C489.218 569.745 429.003 463.108 451.414 350.019C443.357 398.571 448.798 449.959 467.708 506.033C486.723 562.245 516.965 615.739 543.707 663.043L543.707 663.044L543.708 663.044L543.708 663.045L543.708 663.046L544.177 663.874C568.291 706.302 590.802 746.611 601.139 781.003C612.433 819.031 607.668 846.721 585.924 868.413C534.211 919.974 447.907 923.16 384.729 916.611C345.999 912.51 310.729 904.507 287.532 898.292C279.15 896.046 272.296 894.045 267.31 892.588L267.309 892.588L267.309 892.588L267.309 892.588L267.308 892.588L267.307 892.588L267.307 892.588L267.306 892.587L267.305 892.587C261.843 890.992 258.623 890.052 258.089 890.161ZM292.524 880.56C314.821 886.534 348.29 894.054 385.382 897.958C445.737 904.233 527.911 901.147 577.323 851.867C598.03 831.345 602.492 804.781 591.902 768.631C582.104 735.832 560.522 697.462 537.561 657.032L537.072 656.165L537.072 656.165L537.072 656.165C511.651 611.15 482.741 559.957 464.704 506.435C444.842 447.722 440.701 394.73 451.903 344.302C451.894 344.336 451.885 344.371 451.877 344.405C422.664 457.031 482.913 563.696 531.413 649.35L532.581 651.426C553.896 689.31 573.977 725.001 583.011 755.869C593.227 790.712 588.841 816.089 568.991 836.117C521.819 883.342 443.326 886.207 385.569 880.145C325.996 874.112 275.918 857.37 271.288 855.822C271.078 855.751 270.961 855.712 270.941 855.707C207.592 829.077 160.629 789.94 131.447 739.395C106.387 695.989 93.3094 643 93.0977 581.63C92.4966 469.464 133.087 349.507 162.841 261.889C163.939 258.599 165.03 255.34 166.108 252.118L166.11 252.111C172.221 233.848 177.938 216.762 182.513 201.985C192.631 168.729 213.852 144.482 243.876 131.526C270.533 120.324 302.857 118.605 334.837 127.174L336.864 127.717C377.283 139.03 412.922 165.477 434.507 200.227C458.486 238.639 465.097 285.373 453.939 335.817C453.961 335.732 453.983 335.646 454.005 335.561C486.114 212.124 414.059 131.504 333.733 108.774L331.706 108.23C270.898 91.9369 195.781 109.225 172.544 186.037C166.92 204.324 159.655 226.033 151.802 249.034L151.799 249.042C120.614 341.103 77.8857 467.242 78.4501 584.947C79.3624 725.68 140.333 819.745 265.004 872.461C265.067 872.478 265.329 872.563 265.778 872.708L265.779 872.709C268.517 873.593 278.211 876.725 292.524 880.56ZM386.035 879.305C350.805 875.658 318.973 868.336 297.802 862.663C288.279 860.111 280.977 857.898 276.52 856.547L276.52 856.547C273.494 855.629 271.779 855.11 271.573 855.152C152.966 805.026 95.0844 715.651 94.2238 581.932C93.6227 469.766 134.153 350.034 163.906 262.416C164.5 260.639 165.091 258.871 165.679 257.113C166.165 255.659 166.649 254.213 167.131 252.773L167.172 252.65L167.175 252.641C173.286 234.377 179.003 217.289 183.578 202.512C205.79 129.529 277.106 112.912 334.986 128.421L336.788 128.904C412.367 150.108 479.874 225.142 452.261 339.971C461.169 294.139 454.346 251.672 432.536 216.596C412.104 183.845 378.311 158.617 339.92 147.847L338.118 147.364C307.714 139.217 276.923 140.623 251.693 151.001C223.036 163.358 203.078 186.494 193.443 217.949C188.915 233.189 182.854 251.091 176.483 269.907L176.481 269.915L175.588 272.551L174.841 274.76L174.262 276.473C146.276 359.332 108.074 472.436 108.767 578.104C109.088 636.365 121.193 686.68 145.159 727.862C172.857 775.837 217.419 813.123 277.511 838.398C277.531 838.403 277.643 838.44 277.844 838.506C282.265 839.962 329.636 855.564 386.222 861.492C440.705 867.159 515.294 864.455 560.105 819.735C578.917 800.878 583.226 776.687 573.488 743.662C565.171 715.004 546.647 682.052 526.951 647.013L526.95 647.012L526.932 646.98L525.765 644.904C525.348 644.161 524.93 643.418 524.512 642.673C479.398 562.909 423.392 463.643 447.893 358.793C438.913 404.907 443.361 453.637 461.414 507.002C478.82 558.254 506.276 607.13 530.721 650.13C575.758 729.787 611.293 792.656 568.437 835.485C521.55 882.545 443.342 885.246 386.035 879.305ZM302.795 844.931C322.84 850.302 353.095 857.202 386.464 860.591C440.721 866.198 515.025 863.658 559.55 819.104C600.106 778.554 566.384 718.827 523.595 643.393C481.318 568.652 429.546 476.907 442.907 379.362C426.453 474.07 476.868 563.538 517.836 636.056C537.5 670.775 556.009 703.494 564.191 731.515C573.45 762.722 569.443 785.787 551.383 803.638C509.158 845.913 438.475 848.457 386.815 843.063C330.92 837.259 284.245 821.373 283.855 821.027C227.021 797.109 185.024 761.958 158.585 716.493C135.937 677.595 124.355 629.835 124.09 574.968C123.583 474.535 159.854 367.421 186.432 288.932L186.72 288.081C193.382 268.624 199.577 250.007 204.252 234.362C213.239 204.424 232.325 182.744 259.328 171.151C283.536 160.981 312.405 159.544 341.233 167.268L343.034 167.751C379.399 177.978 411.181 201.701 430.788 233.025C449.999 263.799 456.824 300.507 451.078 340.069C471.69 236.257 409.212 168.548 339.618 148.973L337.816 148.49C283.089 133.826 215.408 149.486 194.448 218.701C190.076 233.416 184.322 250.436 178.161 268.66L178.124 268.772C177.562 270.433 176.998 272.103 176.43 273.782L175.846 275.512L175.233 277.329C147.25 360.176 109.14 473.007 109.833 578.631C110.582 705.562 165.6 790.307 277.917 837.782C278.124 837.74 279.776 838.244 282.673 839.127L282.674 839.127L282.675 839.128C286.917 840.421 293.831 842.529 302.795 844.931ZM386.892 841.877C355.445 838.52 326.766 832.043 307.848 826.974C293.66 823.172 284.772 820.307 284.607 820.022C178.13 775.077 126.199 695.021 125.502 575.105C124.934 474.897 161.205 367.784 187.783 289.295L188.071 288.443C189.893 282.919 191.714 277.471 193.494 272.145C198.003 258.654 202.252 245.941 205.603 234.724C225.312 169.278 289.357 154.575 341.156 168.455L342.733 168.877C408.477 187.421 467.612 251.402 448.012 349.837C453.363 312.526 446.876 278.129 428.877 249.169C410.484 219.619 380.262 197.279 346.15 187.656L344.573 187.233C317.322 179.931 289.925 181.281 267.25 191.136C241.899 201.965 223.791 222.7 215.286 250.837C212.116 261.382 208.082 273.302 203.798 285.965C202.092 291.006 200.346 296.165 198.599 301.402C173.428 375.524 139.033 476.864 139.639 571.893C139.952 623.876 150.847 668.797 172.176 705.41C197.131 748.305 236.787 781.38 290.364 803.943C290.385 803.949 290.497 803.986 290.699 804.053L290.705 804.055C294.922 805.452 337.234 819.477 387.408 824.635C436.245 829.755 502.798 827.311 542.722 787.317C579.593 750.608 549.334 696.878 510.996 629.154C472.124 560.573 424.107 475.855 440.445 386.039C427.483 478.486 476.583 565.389 516.689 636.375L516.754 636.49C557.235 707.926 588.918 764.452 550.663 802.721C508.499 844.771 438.551 847.271 386.892 841.877ZM313.066 809.302C330.858 814.069 357.901 820.35 387.77 823.284C436.156 828.283 502.199 825.944 542.002 786.4C578.009 750.479 548.412 697.932 510.809 631.171L510.079 629.874C471.635 562.053 424.515 478.629 438.83 389.917C421.353 475.677 467.06 556.728 504.155 622.252L504.216 622.36C540.217 686.035 568.671 736.361 534.06 770.996C496.497 808.484 434.074 810.828 388.286 806.042C341.071 801.208 301.537 788.14 297.495 786.804L297.493 786.803L297.492 786.803L297.353 786.757L297.263 786.727C297.204 786.708 297.169 786.697 297.158 786.694C246.839 765.486 209.584 734.262 186.052 694.162C166.103 659.608 155.67 617.466 155.473 568.652C154.997 479.84 187.03 384.902 210.457 315.468L210.764 314.559C211.124 313.495 211.482 312.434 211.84 311.376L212.541 309.302L212.571 309.215L212.571 309.214C217.743 293.924 222.624 279.492 226.381 267.086C244.114 208.111 301.519 194.767 347.913 207.198L349.49 207.621C381.575 216.701 410.011 237.597 427.19 265.373C444.85 293.663 450.609 327.377 444.551 363.825C465.761 268.7 409.09 206.675 346.238 189.128L344.662 188.705C295.79 175.61 235.546 189.642 216.863 251.259C212.43 266.003 206.536 283.494 200.176 301.825C175.005 375.946 140.609 477.286 141.276 572.09C141.861 685.217 190.928 760.643 291.116 802.938C291.23 802.872 292.603 803.297 295.074 804.064C298.781 805.213 304.959 807.13 313.066 809.302ZM388.198 804.57C360.251 801.668 334.785 795.81 318.119 791.345C307.717 788.557 300.417 786.261 298.078 785.525L298.078 785.525L298.077 785.525L298.075 785.524C297.631 785.384 297.367 785.301 297.295 785.282C203.397 745.639 157.253 674.617 156.72 568.504C156.408 480.024 188.347 385.365 211.77 315.944L211.77 315.944L212.115 314.921C212.389 314.11 212.663 313.301 212.936 312.494L213.922 309.577L213.922 309.576C219.094 294.286 223.975 279.854 227.732 267.448C245.164 209.599 301.772 196.524 347.491 208.775L348.842 209.137C406.851 225.373 459.01 281.588 442.166 368.05C446.482 335.937 440.664 306.322 425.053 281.457C409.028 255.679 382.438 236.002 352.38 227.465L351.029 227.103C307.562 215.456 254.018 227.903 237.596 282.885C233.646 295.827 228.581 311.126 223.049 327.265L222.52 328.831C200.544 393.759 170.632 482.135 171.203 564.902C171.508 610.606 181.194 650.134 199.824 682.403C221.586 720.098 256.501 749.247 303.562 769.099C303.727 769.384 342.416 782.648 388.714 787.329C431.454 791.781 489.971 789.597 525.008 754.328C557.321 721.972 530.84 675.068 497.144 615.386L497.09 615.29C463.123 555.213 421.443 481.484 434.925 403.264C424.319 484.582 467.416 560.71 502.727 623.077L503.168 623.857C538.66 686.641 566.689 736.224 532.89 769.958C495.673 807.057 433.761 809.296 388.198 804.57ZM524.003 753.576C471.252 806.307 365.002 784.837 322.211 773.372C313.03 770.912 306.739 768.892 304.624 768.213L304.623 768.212L304.622 768.212L304.62 768.212C304.503 768.174 304.399 768.14 304.308 768.111C304.199 768.076 304.108 768.048 304.037 768.025C303.952 767.998 303.894 767.981 303.864 767.973C215.866 730.635 172.75 664.528 172.329 565.203C171.918 482.07 202.023 393.117 224.043 328.052L224.055 328.018C229.647 311.653 234.711 296.354 238.662 283.412C255.068 229.392 307.815 217.214 350.606 228.68L351.957 229.042C404.686 243.845 452.297 294.184 440.211 371.493C442.503 344.373 436.855 319.273 423.531 297.946C408.496 273.882 383.691 255.649 355.66 247.655L354.309 247.293C313.77 236.43 263.637 247.861 248.18 299.239C245.644 308.05 242.31 317.927 238.752 328.465C237.424 332.4 236.064 336.428 234.704 340.526C214.175 400.925 186.079 484.159 186.526 561.765C186.776 604.076 195.713 640.989 213.249 671.034C233.528 706.159 266.102 733.232 309.906 751.729C309.92 751.732 309.947 751.74 309.987 751.753C310.067 751.778 310.198 751.821 310.379 751.879C319.5 754.828 455.529 798.811 516.347 738.007C546.662 707.749 521.948 663.952 490.474 608.448C460.459 555.274 423.833 490.381 431.318 421.4C426.402 493.277 464.551 560.751 495.887 616.175L495.946 616.28C529.31 675.387 555.623 722.002 524.003 753.576ZM515.177 736.969C466.05 786.084 367.353 766.156 327.489 755.474C318.917 753.177 313.203 751.316 311.231 750.673C310.82 750.539 310.571 750.458 310.494 750.438C228.725 715.976 188.758 654.333 188.163 561.963C187.655 484.582 215.691 401.573 236.22 341.174C236.801 339.422 237.381 337.679 237.956 335.948C242.33 322.785 246.479 310.303 249.757 299.661C264.912 249.409 314.083 237.963 353.947 248.644L355.298 249.006C405.881 263.257 451.518 312.682 436.062 388.706C439.713 361.177 434.804 335.692 421.334 314.254C407.348 291.678 384.614 274.724 358.549 267.499L357.423 267.197C319.812 257.119 273.48 267.878 259.214 315.713C256.174 325.479 252.325 336.883 248.253 348.944L248.233 349.002L248.096 349.407C247.575 350.952 247.05 352.508 246.522 354.073C227.425 410.027 201.305 486.791 201.789 558.855C202.087 598.281 210.337 632.355 226.554 660.116C245.41 692.445 275.583 717.669 316.129 734.809C316.17 734.82 316.33 734.872 316.603 734.96C325.373 737.793 451.048 778.393 507.339 722.075C535.354 694.097 512.453 653.442 483.288 601.936L483.004 601.432C453.757 549.528 417.922 485.931 429.981 418.323C420.95 488.648 458.238 554.699 488.758 608.761L489.047 609.272L489.113 609.39C520 664.207 544.494 707.677 515.177 736.969ZM332.767 737.577C369.703 747.474 461.072 765.922 506.29 720.587C533.387 693.329 510.816 653.245 481.92 602.535C454.688 554.502 421.75 496.081 426.444 433.559C419.019 492.903 450.623 548.738 476.516 594.486L476.733 594.869L476.878 595.125C503.502 642.228 524.691 679.713 498.738 705.529C446.885 757.288 330.787 719.861 323.147 717.398L323.143 717.396C322.92 717.325 322.791 717.283 322.759 717.274C253.345 688.054 218.01 633.446 217.684 555.389C217.329 489.481 241.072 419.273 258.488 367.77L258.747 367.004C263.148 354.183 267.143 341.977 270.369 331.737C283.384 287.671 326.08 277.869 360.538 287.102L361.665 287.403C385.702 294.086 406.59 309.821 419.422 330.398C430.956 348.859 435.681 370.467 433.617 393.92C445.36 326.02 404.122 281.855 358.127 269.075C321.087 258.668 274.875 268.976 260.626 315.85C257.158 326.99 252.862 340.322 247.934 354.21L247.347 355.952C228.526 411.81 202.946 487.727 203.321 558.541C203.865 643.898 240.908 701.136 316.612 733.007C316.754 733.045 317.132 733.157 317.729 733.334L317.734 733.336L317.735 733.336L317.736 733.336L317.738 733.337C319.986 734.002 325.307 735.578 332.767 737.577ZM497.628 704.266C455.81 745.925 371.993 729.018 337.985 719.906C330.824 717.987 325.84 716.33 323.998 715.718L323.997 715.718C323.58 715.58 323.325 715.495 323.242 715.472C253.663 685.966 219.647 633.643 219.216 555.076C218.742 489.616 242.483 419.411 259.899 367.909L260.159 367.141C260.513 366.109 260.866 365.082 261.217 364.059L261.217 364.059L261.218 364.058C265.231 352.376 269.022 341.345 271.781 331.874C284.659 289.219 326.334 279.626 360.116 288.678L361.242 288.98C403.948 301.112 442.372 342.283 430.479 405.572C435.878 352.46 402.035 317.723 364.78 307.308L363.879 307.067C332.349 298.618 293.228 307.688 280.789 347.806C278.923 354.161 276.527 361.257 273.973 368.82L273.973 368.822C272.75 372.444 271.491 376.173 270.237 379.98C254.29 426.882 232.614 491.56 232.842 551.968C233.282 623.296 265.529 673.214 328.878 699.844C328.911 699.853 329.042 699.895 329.266 699.967C336.557 702.315 442.3 736.359 489.626 689.087C513.28 665.549 494.064 631.486 469.746 588.378L469.607 588.132L469.028 587.099C444.985 544.23 415.561 491.768 424.557 436.238C418.552 495.094 449.652 550.375 475.305 595.693L475.451 595.951C501.745 642.481 522.604 679.394 497.628 704.266ZM343.038 701.949C373.893 710.216 450.607 725.703 488.577 687.598C511.254 665.005 492.367 631.515 468.379 588.978L468.239 588.731C445.579 548.626 418.277 500.233 421.569 448.465C415.693 497.296 441.628 543.359 463.052 581.065C484.364 618.639 502.709 651.073 481.25 672.6C438.322 715.514 342.279 684.483 336.045 682.469L335.852 682.407C335.816 682.396 335.788 682.386 335.767 682.38C335.75 682.375 335.739 682.371 335.732 682.37C278.508 658.105 249.29 613.102 248.737 548.503C248.412 493.861 268.172 435.429 282.747 392.746C283.133 391.599 283.516 390.459 283.897 389.328C287.042 379.984 289.983 371.245 292.229 363.665C303.071 327.706 338.391 319.307 366.994 326.971L367.895 327.213C401.051 336.521 431.187 366.847 427.799 413.298C437.551 356.61 402.855 319.655 364.357 308.885C333.398 300.106 294.623 308.786 282.876 348.124C281.01 354.479 278.614 361.575 276.061 369.138L276.06 369.14C274.837 372.762 273.578 376.491 272.324 380.298C256.377 427.199 234.537 491.592 234.825 551.775C235.205 623.328 266.297 671.247 329.646 697.877C330.261 698.284 335.156 699.837 343.038 701.949ZM479.63 671.442C445.345 705.705 376.183 691.76 348.256 684.277C342.739 682.799 338.84 681.613 337.013 681.057L337.012 681.056C336.453 680.886 336.088 680.775 335.93 680.733C205.358 625.711 254.466 480.276 283.978 393.559C284.364 392.409 284.748 391.267 285.13 390.134L285.131 390.13C288.274 380.79 291.214 372.055 293.46 364.477C304.06 329.42 338.524 321.515 366.226 328.938L367.126 329.179C400.893 338.67 431.525 370.471 425.025 419.384C425.68 380.47 399.651 355.199 371.235 347.177L370.334 346.936C344.66 340.056 312.75 347.438 303.324 379.914C302.609 382.067 301.865 384.329 301.09 386.685L301.088 386.692L301.074 386.734L301.074 386.735C299.14 392.615 297.017 399.072 294.687 405.842C281.769 444.142 264.149 496.388 264.346 545.202C264.562 602.952 290.692 643.265 342.076 665C342.103 665.007 342.207 665.04 342.385 665.098L342.388 665.099L342.389 665.099C348.278 666.999 433.963 694.644 472.364 656.218C491.747 637.032 475.216 607.739 456.212 574.163C438.408 542.767 416.969 504.835 418.568 464.272C419.026 507.662 441.811 548.083 460.836 581.835L461.053 582.219C482.86 620.65 500.05 651.085 479.63 671.442ZM353.534 666.38C378.533 673.079 440.368 685.543 471.029 654.895C489.209 636.593 473.997 609.585 454.498 575.152L453.998 574.262C435.772 541.842 413.851 502.85 416.653 461.048C410.878 500.219 431.797 537.197 448.88 567.395L449.025 567.651C465.886 597.515 480.274 623.095 463.356 640.287C429.479 674.229 354.136 649.959 348.613 648.18C348.434 648.122 348.328 648.088 348.3 648.08C302.98 628.937 279.938 593.313 279.609 542.291C279.316 499.421 294.952 453.397 306.365 419.802L306.366 419.801L306.506 419.389C307.651 415.868 308.804 412.474 309.906 409.228L309.907 409.227C311.446 404.697 312.887 400.454 314.073 396.554C322.594 367.456 350.642 360.971 373.389 367.066L374.065 367.247C399.952 374.602 423.524 398.059 421.45 434.047C429.773 387.845 401.803 357.757 370.527 348.919L369.852 348.738C345.078 342.1 314.475 349.107 305.126 380.397C302.952 387.649 299.983 396.227 296.926 405.062L296.489 406.325C270.127 483.989 226.205 613.675 342.845 663.033C343.01 663.319 347.003 664.63 353.534 666.38ZM462.082 638.739C435.105 665.546 380.823 654.623 358.752 648.709C356.468 648.096 354.527 647.537 353.007 647.098C350.783 646.457 349.463 646.076 349.293 646.174C246.579 602.979 285.234 488.8 308.394 420.387L308.472 420.157C311.441 411.78 314.064 403.793 316.1 397.097C324.544 369.186 351.736 363.195 373.747 369.334C401.364 376.964 426.042 403.739 418.434 444.716C419.947 413.647 399.717 393.399 377.18 387.151L376.504 386.97C356.91 381.72 332.497 387.248 325.063 412.292C323.623 416.943 321.882 422.136 319.988 427.785L319.988 427.786C319.523 429.175 319.048 430.592 318.566 432.035C308.573 461.221 295.233 501.096 295.338 538.54C295.555 582.773 315.734 613.767 354.99 630.32C357.857 631.33 424.5 653.773 454.815 623.515C469.571 608.75 457.169 586.708 442.724 561.035L442.47 560.584C427.824 534.915 409.951 503.385 414.136 470.042C412.389 506.457 431.618 540.566 447.537 568.701C464.563 598.85 477.961 622.717 462.082 638.739ZM363.805 630.751C382.723 635.82 429.902 645.324 453.03 622.071C466.834 608.39 455.024 587.604 440.246 561.678L440.106 561.429C427.153 538.466 411.741 511.144 411.185 481.767C409.674 508.121 423.671 533.054 435.195 553.58L435.195 553.581L435.344 553.846C447.814 575.775 458.47 594.562 445.643 607.298C421.258 631.668 369.271 615.644 361.852 613.357L361.848 613.356C361.446 613.232 361.176 613.149 361.048 613.115C284.279 580.716 313.022 495.966 330.22 445.296C331.931 440.351 333.42 435.656 334.711 431.586L334.714 431.579L334.715 431.576L334.724 431.547C334.922 430.923 335.115 430.313 335.304 429.72C335.42 429.356 335.534 428.997 335.647 428.646C342.341 407.266 362.953 402.409 379.844 406.935L380.295 407.056C398.448 412.119 414.995 428.082 415.319 452.381C420.985 418.04 399.776 395.605 376.411 389.118L375.736 388.937C357.043 383.928 333.877 389.308 326.579 412.939C325.054 417.866 323.148 423.562 321.111 429.65L321.11 429.651L321.095 429.699C320.74 430.757 320.382 431.828 320.022 432.908L319.944 433.139C299.993 492.273 266.689 590.988 355.247 628.458L363.805 630.751ZM444.368 605.749C424.64 625.326 385.014 617.364 369.023 613.079C365.743 612.2 363.387 611.411 362.488 611.11L362.488 611.11L362.483 611.108C362.393 611.078 362.317 611.053 362.257 611.033C362.224 611.022 362.195 611.012 362.171 611.004C362.139 610.994 362.116 610.987 362.102 610.983C287.299 579.353 315.516 495.668 332.472 445.899C334.265 440.718 335.815 435.81 337.184 431.476L337.442 430.659L337.691 429.871L337.817 429.472L337.959 429.024C344.066 408.935 363.822 404.573 379.752 409.083C399.83 414.692 417.731 434.131 412.202 463.781C411.557 444.616 398.55 431.213 383.41 426.96L382.96 426.84C369.221 423.159 352.185 427.284 346.802 444.67C346.131 447.172 345.22 449.886 344.242 452.801L344.241 452.802L344.241 452.803C343.634 454.61 343.002 456.494 342.385 458.452L342.382 458.461C328.333 500.08 304.948 569.358 367.842 595.866C367.91 595.884 368.028 595.919 368.192 595.97C368.282 595.997 368.385 596.029 368.501 596.065C374.58 597.94 417.186 611.082 437.207 591.037C447.733 580.581 438.89 564.935 428.729 547.005C419.171 530.162 407.536 509.474 408.977 487.728C409.613 512.501 422.649 535.551 433.631 554.836L433.853 555.232C446.157 577.196 455.803 594.416 444.368 605.749ZM435.482 589.368C419.663 605.164 387.364 598.683 374.301 595.183L374.3 595.182C370.923 594.277 368.896 593.734 368.731 593.449C307.799 567.708 330.83 499.772 344.637 459.056C346.25 453.936 347.743 449.267 349.054 445.273C353.849 429.178 369.519 425.652 382.356 429.092L382.807 429.213C399.863 434.024 415.071 451.134 408.296 477.32C401.603 503.182 415.059 527.268 426.034 546.913C426.267 547.33 426.499 547.746 426.73 548.159L427.321 549.221C436.981 566.584 444.561 580.208 435.482 589.368Z" fill="url(#paint0_linear_4_416)"/>
<defs>
<linearGradient id="paint0_linear_4_416" x1="722.562" y1="604.41" x2="20.7017" y2="416.347" gradientUnits="userSpaceOnUse">
<stop stop-color="#04DA00" stop-opacity="0"/>
<stop offset="0.3125" stop-color="#FF0469"/>
<stop offset="0.703125" stop-color="#109BFF"/>
<stop offset="1" stop-color="#FFD110" stop-opacity="0"/>
</linearGradient>
</defs>
</svg>
