<svg width="334" height="996" viewBox="0 0 334 996" fill="none" xmlns="http://www.w3.org/2000/svg">
<path opacity="0.33" fill-rule="evenodd" clip-rule="evenodd" d="M18.7616 988.6L16.2842 987.936C-9.33003 980.831 -33.2266 969.117 -55.0756 953.366C-77.9301 936.862 -96.875 916.579 -111.355 893.146C-144.454 840.103 -152.351 774.984 -133.973 704.595C-95.7472 557.443 -174.142 418.393 -237.366 306.252L-237.937 305.238C-266.668 254.814 -293.69 207.02 -305.672 166.152C-319.105 120.793 -313.342 87.5763 -287.283 61.4886C-259.96 34.2909 -222.72 16.0265 -175.97 7.31092C-138.804 0.130871 -95.8026 -0.899257 -47.8671 3.97915C29.3933 11.871 94.1346 33.3166 101.469 35.7462C101.874 35.8804 102.104 35.9566 102.152 35.9693C144.89 53.9385 182.29 76.5122 213.123 102.878C242.006 127.514 266.182 156.2 284.648 188.184L284.649 188.186C285.802 190.184 286.956 192.182 287.884 194.12C252.201 130.005 193.286 75.1135 101.97 36.6449C101.906 36.6277 101.625 36.5359 101.138 36.3764C93.0927 33.7466 28.7777 12.7225 -47.823 4.71516C-122.97 -3.10947 -225.345 0.598422 -286.953 62.0597C-312.667 87.7574 -318.654 120.913 -305.161 166.048C-292.954 206.975 -266.157 254.709 -237.651 305.073C-205.683 361.435 -169.714 425.385 -146.86 492.339C-122.031 565.353 -116.86 631.581 -131.017 694.402C-95.1874 553.367 -170.511 420.046 -231.173 312.675L-231.174 312.674L-231.382 312.305C-232.171 310.9 -232.959 309.498 -233.746 308.097L-233.847 307.918L-233.875 307.869C-260.251 260.925 -285.123 216.66 -296.435 178.524C-309.104 134.818 -303.418 102.788 -278.621 77.8102C-252.336 51.7827 -216.464 34.1176 -171.757 25.8201C-135.898 19.0139 -94.5939 18.0118 -48.5204 22.6327C26.0627 30.4145 88.8522 51.0672 95.0804 53.1158C95.3821 53.2151 95.5511 53.2706 95.5823 53.279C136.579 70.5402 172.524 92.2411 202.187 117.569C229.899 141.168 253.13 168.876 270.996 199.492C277.261 210.344 282.955 221.525 288.018 233.261C255.83 159.703 196.264 96.4298 95.4012 53.9547C95.3361 53.9372 95.0581 53.8466 94.577 53.6897L94.576 53.6894L94.5754 53.6892C86.7301 51.1313 24.9799 30.9982 -48.4762 23.3687C-120.575 15.8781 -219.045 19.4255 -278.066 78.4417C-302.803 103.194 -308.428 134.999 -295.639 178.255C-283.971 217.59 -258.103 263.385 -230.751 311.75C-200.101 365.827 -165.391 427.268 -143.57 491.773C-120.893 558.809 -115.215 619.905 -126.538 677.747C-96.8225 545.256 -167.589 420.117 -224.767 319.147C-251.13 272.495 -275.844 228.699 -287.198 190.896C-299.613 148.947 -294.29 118.269 -270.306 94.5214C-245.223 69.3787 -210.779 52.5379 -167.829 44.4936C-133.503 38.0011 -93.6706 37.0873 -49.7448 41.6155C21.88 49.0734 81.8923 68.7703 87.9454 70.757C88.243 70.8547 88.4102 70.9096 88.4419 70.918C102.194 76.7405 115.312 83.0474 127.784 89.8328C115.528 83.2345 102.621 77.067 89.0572 71.3243C88.9508 71.2958 88.5701 71.1758 87.9284 70.9737C84.4929 69.8913 73.578 66.4525 57.2575 62.0794C31.8082 55.2603 -6.61539 46.4131 -49.1295 42.0218C-118.179 34.8653 -212.519 38.3124 -269.18 94.8231C-292.939 118.631 -298.202 149.084 -285.891 190.522C-275.112 227.078 -251.376 269.371 -226.145 314.328L-226.145 314.329L-226.145 314.329L-226.091 314.425C-225.291 315.851 -224.488 317.281 -223.685 318.712L-221.923 321.843L-221.923 321.843L-221.923 321.844C-193.087 373.079 -160.706 430.614 -140.055 491.266C-117.964 556.385 -112.82 615.346 -124.027 671.453C-94.2591 543.792 -162.481 423.047 -217.641 325.884L-218.952 323.543L-220.098 321.5C-244.183 278.531 -266.922 237.962 -277.165 202.999C-289.102 162.868 -283.915 133.601 -260.848 110.574C-236.803 86.6012 -203.726 70.3596 -162.534 62.5685C-129.74 56.3896 -91.5447 55.2786 -49.3161 59.8348C19.6521 66.9647 77.5834 86.2518 82.5515 87.9059C82.7608 87.9755 82.8761 88.0139 82.8943 88.0188C155.73 118.881 210.001 164.079 243.919 222.169C272.997 272.204 287.972 333.426 288.308 404.243C289.068 533.832 242.117 672.12 207.782 773.236C206.698 776.471 205.622 779.681 204.555 782.861C197.299 804.497 190.51 824.738 185.185 842.253C173.514 880.404 149.059 908.611 114.422 923.469C83.3766 936.634 46.1867 938.497 9.25131 928.6L6.99915 927.997C-39.4395 914.83 -80.5557 884.501 -105.499 844.265C-132.125 801.456 -140.34 749.92 -129.32 694.093C-161.566 831.829 -80.1934 921.793 10.5205 947.286L12.7726 947.889C65.3438 961.976 127.198 954.187 165.975 911.834C153.796 925.359 138.835 936.021 121.382 943.438C89.9301 957.218 51.1034 958.884 12.3663 948.505L9.88899 947.841C-38.8018 934.07 -81.7036 902.298 -107.697 860.573C-135.798 815.538 -144.045 761.132 -132.306 702.457C-166.468 846.532 -81.4581 940.522 13.4104 967.131L15.6626 967.734C88.4073 987.226 178.457 966.456 206.249 874.45C212.127 854.923 219.814 832.231 227.995 808.077L228.002 808.059L228.004 808.052L228.03 807.976C229.009 805.086 229.995 802.176 230.985 799.247C266.723 694.096 313.485 555.735 318.659 423.554C313.718 556.059 266.902 694.494 232.045 797.567L232.044 797.569L231.436 799.368C230.748 801.4 230.063 803.424 229.381 805.438L228.455 808.172L228.454 808.173L228.454 808.174C220.269 832.336 212.579 855.037 206.699 874.571C194.063 916.325 167.532 946.873 129.71 962.808C96.3191 977.518 55.96 979.497 15.6464 968.695L13.169 968.031C-37.5487 953.717 -82.236 920.501 -109.444 877.002C-139.726 828.329 -148.024 769.045 -133.602 705.02C-173.435 858.75 -83.8383 959.178 16.4653 987.26L18.9427 987.924C94.6152 1008.2 188.301 986.474 217.343 890.699C224.174 867.908 233.338 840.914 243.15 812.403L243.519 811.315L243.519 811.314C279.48 704.996 326.317 566.523 333.977 432.895C326.544 567.214 279.677 706.237 244.444 810.751L243.826 812.585C242.511 816.505 241.203 820.395 239.908 824.249C231.764 848.482 224.107 871.268 218.019 890.88C204.96 934.211 177.167 965.869 137.856 982.854C102.933 997.877 60.6518 999.824 18.7616 988.6ZM319.108 394.871C319.191 404.39 319.035 413.955 318.659 423.554C318.984 414.847 319.128 406.165 319.075 397.521C319.09 396.639 319.101 395.755 319.108 394.871ZM318.679 377.38C318.916 383.19 319.057 389.022 319.108 394.871C319.154 389.015 319.024 383.135 318.679 377.38ZM195.544 858.546C188.933 880.327 178.696 897.941 165.975 911.834C179.078 897.283 188.959 879.417 195.258 858.711C201.606 837.722 209.942 812.919 218.925 786.601C254.692 681.042 303.558 536.508 302.895 401.151C302.443 327.165 286.945 263.389 256.549 211.07C227.594 161.187 184.323 120.593 127.784 89.8328C244.616 152.736 302.154 254.794 303.12 401.212C303.844 536.343 254.978 680.877 219.211 786.436C210.227 812.754 201.892 837.557 195.544 858.546ZM-49.5575 60.7357C-8.9054 64.8695 27.9417 73.2943 52.265 79.8117C64.1555 82.9977 73.0517 85.7818 77.9564 87.3166C80.6694 88.1657 82.1611 88.6325 82.2628 88.5738C219.289 146.532 286.271 249.69 287.121 404.167C287.717 533.47 240.991 671.819 206.656 772.934C206.222 774.226 205.79 775.515 205.358 776.801L204.385 779.7L204.209 780.224L204.208 780.227C196.699 802.59 189.57 823.823 184.059 841.951C158.545 926.36 75.9314 945.502 9.26748 927.639L7.24053 927.096C-78.3657 902.99 -155.019 819.302 -127.954 690.916C-136.606 741.704 -128.39 788.708 -104.038 828C-80.0231 866.299 -40.8132 895.633 3.65888 908.032L5.91101 908.636C41.2699 918.11 76.9877 916.335 105.99 903.588C139.2 889.555 162.557 862.743 173.58 826.108C178.666 809.469 185.156 790.301 192.108 769.769C193.173 766.625 194.249 763.448 195.332 760.244L195.667 759.253L195.667 759.252C228.256 662.832 272.818 530.986 272.188 407.649C272.128 399.582 271.871 391.643 271.419 383.834C265.063 263.693 213.491 178.307 114.725 124.248C102.458 117.45 89.4849 111.174 75.8144 105.433C75.7812 105.424 75.6109 105.368 75.309 105.268C69.4766 103.345 14.5179 85.222 -50.7052 78.5325C-91.0717 74.2338 -127.284 75.1519 -158.832 81.1821C-198.206 88.4947 -229.63 103.972 -252.697 127C-274.501 148.917 -279.611 176.997 -268.153 215.311C-258.045 249.359 -235.825 288.755 -212.209 330.627L-211.025 332.726C-159.564 423.445 -96.2113 535.367 -119.832 654.173C-111.27 603.22 -116.841 549.423 -136.765 490.699C-156.865 431.483 -188.608 375.183 -216.784 325.39L-217.939 323.344C-242.717 279.458 -265.94 238.327 -276.368 202.73C-288.14 162.884 -283.014 133.842 -260.293 111.205C-206.219 57.1395 -115.784 53.8529 -49.5575 60.7357ZM76.4297 105.839C89.901 111.512 102.665 117.646 114.725 124.248C165.152 152.192 203.658 188.97 229.697 233.808C254.138 275.85 268.089 326.31 271.419 383.834C271.823 391.461 272.044 399.229 272.084 407.138C272.774 530.251 228.211 662.097 195.622 758.516L195.287 759.508C186.908 783.574 179.341 806.41 173.475 825.598C149.212 906.238 70.2344 924.423 6.4983 907.345L4.47141 906.802C-77.1461 883.999 -150.248 804.166 -124.779 681.84C-132.867 730.056 -125.176 774.763 -101.901 811.917C-79.1005 848.442 -41.6761 876.332 0.769029 888.188L2.79598 888.731C36.5783 897.783 70.3737 895.976 98.9096 884.07C130.526 870.575 152.846 844.933 163.386 810.101C169.07 791.588 176.275 770.104 184.128 747.104L184.131 747.095C215.316 655.034 258.044 528.895 257.315 410.905C256.762 346.306 243.222 290.537 216.782 245.072C185.892 191.896 136.588 150.684 69.9812 122.698C69.9683 122.695 69.9355 122.685 69.8834 122.668C69.8533 122.658 69.8169 122.646 69.774 122.632L69.4816 122.536C63.8349 120.678 11.6478 103.508 -50.6225 97.1417C-88.9017 93.161 -123.642 93.9907 -153.657 99.7074C-191.049 106.827 -221.045 121.48 -243.074 143.337C-264.126 164.249 -268.649 191.039 -257.955 227.699C-248.382 260.165 -227.304 297.579 -204.836 337.462L-203.674 339.524L-203.538 339.765C-154.7 426.255 -94.4845 532.893 -116.896 645.982C-108.838 597.43 -114.28 546.042 -133.19 489.968C-152.205 433.755 -182.447 380.261 -209.189 332.956L-209.19 332.955L-209.19 332.955L-209.658 332.127C-233.773 289.698 -256.283 249.389 -266.62 214.997C-277.914 176.969 -273.15 149.279 -251.406 127.587C-199.693 76.0268 -113.389 72.8404 -50.2106 79.3892C-11.481 83.4906 23.7896 91.493 46.9868 97.7086C55.3686 99.9545 62.2223 101.956 67.2089 103.412L67.2092 103.412L67.2096 103.412L67.2098 103.412L67.2103 103.412C72.6738 105.008 75.8956 105.949 76.4297 105.839ZM41.9941 115.441C19.6977 109.466 -13.7711 101.947 -50.8639 98.0426C-111.219 91.7676 -193.393 94.8537 -242.805 144.134C-263.511 164.656 -267.974 191.22 -257.383 227.369C-247.585 260.168 -226.004 298.539 -203.043 338.969L-202.554 339.835L-202.554 339.835C-177.133 384.85 -148.223 436.043 -130.185 489.566C-110.324 548.279 -106.182 601.271 -117.385 651.699C-117.376 651.665 -117.367 651.63 -117.358 651.595C-88.1455 538.969 -148.395 432.304 -196.894 346.651L-198.062 344.574C-219.377 306.69 -239.458 271 -248.492 240.131C-258.708 205.289 -254.322 179.911 -234.473 159.884C-187.301 112.659 -108.807 109.794 -51.0503 115.855C8.52301 121.889 58.6005 138.631 63.2309 140.179L63.2338 140.18C63.3481 140.218 63.4345 140.247 63.4923 140.266C63.54 140.282 63.5683 140.291 63.5771 140.293C126.926 166.923 173.889 206.06 203.071 256.605C228.131 300.011 241.209 353.001 241.421 414.37C242.022 526.536 201.431 646.494 171.678 734.112C170.579 737.401 169.489 740.66 168.411 743.883L168.408 743.889C162.298 762.152 156.581 779.239 152.006 794.016C141.888 827.272 120.667 851.518 90.6427 864.474C63.9852 875.677 31.6618 877.396 -0.318884 868.826L-2.34586 868.283C-42.764 856.97 -78.4029 830.524 -99.9888 795.773C-123.968 757.361 -130.579 710.627 -119.42 660.182C-119.442 660.268 -119.464 660.354 -119.487 660.44C-151.596 783.877 -79.5403 864.497 0.78523 887.227L2.81215 887.77C63.6204 904.064 138.737 886.776 161.974 809.964C167.598 791.677 174.864 769.967 182.716 746.967L182.719 746.959C213.904 654.897 256.633 528.759 256.068 411.054C255.156 270.32 194.186 176.256 69.5146 123.539C69.4511 123.522 69.1896 123.438 68.7403 123.292L68.739 123.292C66.0015 122.408 56.3071 119.276 41.9941 115.441ZM-51.5169 116.696C-16.2862 120.342 15.5458 127.665 36.7161 133.337C46.2394 135.889 53.5416 138.103 57.9983 139.454L57.9987 139.454C61.0249 140.371 62.7391 140.891 62.9456 140.848C181.552 190.975 239.434 280.349 240.295 414.069C240.896 526.235 200.365 645.967 170.612 733.585C169.528 736.83 168.452 740.047 167.388 743.227L167.346 743.351L167.344 743.359C161.233 761.623 155.515 778.711 150.94 793.489C128.729 866.472 57.4128 883.089 -0.467624 867.58L-2.26936 867.097C-77.8484 845.892 -145.356 770.858 -117.742 656.03C-126.65 701.862 -119.828 744.328 -98.0169 779.404C-77.5851 812.156 -43.7921 837.384 -5.40092 848.153L-3.59921 848.636C26.805 856.783 57.596 855.378 82.8258 844.999C111.482 832.643 131.441 809.506 141.076 778.052C145.604 762.812 151.665 744.91 158.035 726.094L158.038 726.086L158.689 724.163C159.018 723.191 159.347 722.217 159.678 721.24L160.256 719.528C188.243 636.668 226.445 523.565 225.751 417.896C225.431 359.635 213.326 309.321 189.359 268.139C161.662 220.163 117.099 182.877 57.0077 157.603C56.9881 157.597 56.8758 157.56 56.6741 157.494C52.2539 156.038 4.88288 140.436 -51.7037 134.508C-106.187 128.841 -180.775 131.546 -225.586 176.265C-244.398 195.122 -248.708 219.314 -238.97 252.338C-230.652 280.997 -212.129 313.949 -192.432 348.988L-192.415 349.019L-191.138 351.291L-189.993 353.327C-144.879 433.091 -88.8734 532.358 -113.375 637.208C-104.395 591.094 -108.843 542.364 -126.895 488.998C-144.301 437.746 -171.757 388.87 -196.202 345.87C-241.239 266.214 -276.774 203.345 -233.918 160.515C-187.031 113.455 -108.823 110.755 -51.5169 116.696ZM31.7232 151.069C11.679 145.698 -18.5764 138.798 -51.9451 135.409C-106.203 129.802 -180.506 132.342 -225.031 176.897C-265.587 217.446 -231.865 277.174 -189.076 352.607C-146.8 427.348 -95.0283 519.092 -108.388 616.636C-91.935 521.929 -142.35 432.461 -183.318 359.944C-202.981 325.226 -221.491 292.506 -229.672 264.485C-238.932 233.279 -234.924 210.214 -216.865 192.362C-174.64 150.088 -103.956 147.544 -52.2966 152.937C3.59798 158.741 50.2736 174.627 50.6637 174.973C107.498 198.892 149.494 234.042 175.934 279.508C198.581 318.405 210.163 366.166 210.428 421.032C210.936 521.465 174.665 628.579 148.087 707.069L148.086 707.069L147.799 707.92C141.137 727.377 134.941 745.994 130.267 761.638C121.279 791.576 102.194 813.257 75.1902 824.85C50.9821 835.019 22.1134 836.456 -6.71426 828.732L-8.516 828.249C-44.8803 818.023 -76.6625 794.299 -96.27 762.975C-115.48 732.202 -122.305 695.494 -116.559 655.933C-137.171 759.744 -74.6927 827.453 -5.09918 847.027L-3.29747 847.51C51.43 862.174 119.11 846.515 140.07 777.3C144.443 762.584 150.196 745.565 156.357 727.34L156.395 727.228L157.329 724.466C157.775 723.146 158.223 721.82 158.672 720.488L159.286 718.671C187.269 635.824 225.379 522.993 224.686 417.369C223.937 290.439 168.918 205.693 56.6015 158.218C56.3942 158.26 54.743 157.757 51.8456 156.873L51.8448 156.873L51.8437 156.873C47.6013 155.579 40.6878 153.471 31.7232 151.069ZM-52.3731 154.123C-20.9269 157.48 7.75204 163.958 26.6702 169.027C40.8588 172.829 49.7467 175.693 49.9116 175.979C156.389 220.924 208.319 300.979 209.016 420.895C209.584 521.104 173.313 628.217 146.735 706.707L146.447 707.558C144.625 713.083 142.804 718.532 141.023 723.859C136.515 737.349 132.267 750.061 128.915 761.276C109.207 826.723 45.1619 841.425 -6.63776 827.546L-8.21426 827.123C-73.9589 808.58 -133.095 744.596 -113.493 646.159C-118.845 683.472 -112.358 717.871 -94.3582 746.832C-75.9651 776.382 -45.7432 798.722 -11.6311 808.345L-10.0546 808.767C17.1965 816.069 44.5932 814.72 67.2691 804.864C92.6196 794.035 110.728 773.3 119.232 745.164C122.403 734.618 126.437 722.697 130.721 710.034C132.427 704.993 134.172 699.835 135.919 694.598C161.09 620.477 195.486 519.137 194.879 424.108C194.566 372.125 183.671 327.204 162.343 290.591C137.387 247.696 97.7314 214.621 44.1549 192.057C44.1342 192.052 44.0218 192.015 43.8212 191.948L43.8168 191.947L43.8139 191.946L43.8133 191.946C39.5969 190.548 -2.71512 176.523 -52.8895 171.365C-101.726 166.245 -168.279 168.689 -208.203 208.684C-245.074 245.392 -214.815 299.123 -176.477 366.846C-137.604 435.429 -89.5862 520.149 -105.927 609.966C-92.963 517.518 -142.064 430.612 -182.171 359.625L-182.236 359.51C-222.717 288.074 -254.4 231.548 -216.145 193.279C-173.98 151.23 -104.033 148.73 -52.3731 154.123ZM21.4522 186.698C3.66019 181.931 -23.3818 175.651 -53.2516 172.716C-101.638 167.717 -167.68 170.057 -207.483 209.601C-243.49 245.522 -213.893 298.069 -176.291 364.829L-175.56 366.126C-137.117 433.946 -89.9971 517.37 -104.311 606.081C-86.8351 520.322 -132.541 439.271 -169.637 373.748L-169.698 373.64C-205.699 309.966 -234.153 259.639 -199.541 225.005C-161.978 187.516 -99.5556 185.172 -53.7678 189.958C-6.55293 194.792 32.9813 207.86 37.024 209.197L37.0255 209.197L37.1612 209.242L37.2563 209.273C37.3148 209.293 37.3497 209.304 37.3607 209.307C87.6796 230.514 124.935 261.739 148.467 301.839C168.416 336.393 178.849 378.535 179.045 427.348C179.522 516.161 147.489 611.099 124.062 680.532L123.755 681.441C123.397 682.501 123.04 683.556 122.684 684.608L121.977 686.698L121.948 686.785L121.948 686.786C116.776 702.077 111.895 716.508 108.138 728.914C90.4043 787.89 32.9997 801.234 -13.3948 788.802L-14.9713 788.38C-47.0564 779.3 -75.4927 758.404 -92.6714 730.627C-110.331 702.338 -116.09 668.624 -110.033 632.177C-131.242 727.301 -74.5706 789.326 -11.7194 806.873L-10.1429 807.295C38.7289 820.39 98.9729 806.359 117.656 744.741C122.089 729.997 127.983 712.507 134.343 694.176C159.514 620.055 193.91 518.714 193.242 423.91C192.658 310.783 143.59 235.357 43.4027 193.063C43.2885 193.129 41.9165 192.703 39.4469 191.937L39.4454 191.937L39.4445 191.937C35.7378 190.787 29.56 188.871 21.4522 186.698ZM-53.6794 191.43C-25.7321 194.332 -0.266561 200.19 16.3994 204.656C26.8025 207.443 34.1022 209.74 36.4404 210.475L36.4418 210.476C36.8868 210.616 37.1518 210.699 37.2238 210.718C131.121 250.362 177.265 321.384 177.799 427.497C178.111 515.977 146.172 610.636 122.748 680.057L122.403 681.079C121.798 682.872 121.194 684.656 120.595 686.428L120.595 686.429L120.594 686.431C115.423 701.719 110.543 716.148 106.786 728.552C89.3546 786.401 32.7465 799.476 -12.9723 787.226L-14.3236 786.864C-72.3325 770.627 -124.491 714.412 -107.648 627.951C-111.963 660.064 -106.145 689.678 -90.5345 714.544C-74.5099 740.321 -47.9195 759.999 -17.8613 768.535L-16.51 768.898C26.9567 780.544 80.5002 768.097 96.9222 713.115C100.873 700.173 105.938 684.874 111.469 668.735L111.999 667.169C133.975 602.242 163.887 513.865 163.316 431.099C163.01 385.394 153.325 345.867 134.695 313.598C112.932 275.903 78.0176 246.753 30.9562 226.902C30.7913 226.616 -7.89725 213.353 -54.1959 208.672C-96.9353 204.22 -155.453 206.403 -190.49 241.672C-222.803 274.028 -196.321 320.932 -162.626 380.614L-162.571 380.711C-128.604 440.787 -86.9252 514.516 -100.406 592.735C-89.801 511.417 -132.898 435.29 -168.209 372.924L-168.65 372.144C-204.142 309.359 -232.17 259.777 -198.371 226.043C-161.154 188.944 -99.2421 186.705 -53.6794 191.43ZM-189.485 242.424C-136.734 189.694 -30.4835 211.163 12.3075 222.629C21.4883 225.089 27.7799 227.109 29.8947 227.788C30.322 227.925 30.5788 228.007 30.6545 228.028C118.652 265.366 161.768 331.473 162.19 430.797C162.6 513.931 132.495 602.884 110.475 667.949L110.464 667.983C104.872 684.347 99.807 699.646 95.8565 712.588C79.4506 766.609 26.7035 778.787 -16.0876 767.321L-17.4388 766.959C-70.1674 752.155 -117.778 701.817 -105.692 624.509C-107.985 651.628 -102.336 676.728 -89.0129 698.055C-73.9776 722.119 -49.1727 740.352 -21.1414 748.346L-19.7901 748.708C20.7488 759.57 70.8817 748.14 86.3381 696.762C88.8747 687.951 92.2087 678.074 95.7658 667.537L95.766 667.536L95.7661 667.536L95.7829 667.486C97.1061 663.566 98.4599 659.556 99.8149 655.474C120.344 595.075 148.44 511.841 147.992 434.235C147.743 391.925 138.805 355.011 121.269 324.967C100.99 289.842 68.416 262.768 24.6121 244.272C24.5727 244.261 24.4132 244.21 24.1391 244.121C15.018 241.172 -121.011 197.189 -181.829 257.994C-212.144 288.252 -187.43 332.048 -155.956 387.553C-125.941 440.726 -89.3147 505.619 -96.7996 574.599C-91.8842 502.722 -130.033 435.249 -161.368 379.826L-161.428 379.72C-194.791 320.614 -221.104 273.999 -189.485 242.424ZM-180.658 259.032C-131.532 209.916 -32.8341 229.845 7.02908 240.526C15.6015 242.823 21.3157 244.685 23.2875 245.327L23.2902 245.328C23.6998 245.461 23.9473 245.542 24.0248 245.563C105.793 280.025 145.76 341.667 146.355 434.038C146.863 511.419 118.827 594.428 98.2987 654.827C97.7317 656.535 97.1671 658.234 96.6062 659.922L96.5732 660.02L96.5625 660.053L96.5615 660.056L96.5607 660.058C92.1869 673.219 88.0392 685.699 84.7616 696.339C69.6069 746.591 20.4352 758.038 -19.428 747.356L-20.7793 746.994C-71.3621 732.743 -116.999 683.319 -101.544 607.296C-105.194 634.825 -100.286 660.308 -86.8153 681.746C-72.8295 704.322 -50.0957 721.276 -24.031 728.501L-22.905 728.803C14.7061 738.881 61.0384 728.122 75.304 680.287C78.3429 670.525 82.1912 659.126 86.2613 647.069L86.2625 647.066L86.2636 647.062L87.1642 644.394C87.4408 643.575 87.7182 642.752 87.9963 641.928C107.093 585.973 133.213 509.21 132.729 437.146C132.431 397.719 124.182 363.645 107.964 335.885C89.1088 303.556 58.9354 278.332 18.3891 261.191C18.3483 261.18 18.1887 261.129 17.9158 261.041L17.9155 261.041C9.14502 258.207 -116.53 217.607 -172.821 273.925C-200.835 301.903 -177.935 342.558 -148.769 394.065L-148.485 394.569C-119.24 446.471 -83.405 510.068 -95.4621 577.674C-86.4326 507.35 -123.72 441.301 -154.239 387.24L-154.528 386.728L-154.594 386.611C-185.482 331.793 -209.975 288.324 -180.658 259.032ZM1.75111 258.423C-35.1843 248.526 -126.554 230.078 -171.771 275.413C-198.869 302.671 -176.298 342.755 -147.402 393.465C-120.17 441.499 -87.231 499.921 -91.926 562.443C-84.5002 503.099 -116.104 447.263 -141.998 401.514L-142.214 401.131L-142.359 400.875C-168.984 353.773 -190.172 316.288 -164.22 290.472C-112.366 238.713 3.73107 276.14 11.3711 278.603L11.3759 278.604C11.5982 278.676 11.7276 278.718 11.7596 278.726C81.1734 307.947 116.508 362.555 116.835 440.611C117.189 506.52 93.447 576.727 76.0304 628.23L75.7712 628.996C71.3702 641.818 67.3754 654.024 64.149 664.263C51.1345 708.33 8.43798 718.132 -26.0201 708.899L-27.1461 708.597C-51.1838 701.915 -72.0717 686.179 -84.9034 665.602C-96.4379 647.142 -101.162 625.533 -99.0988 602.079C-110.842 669.979 -69.6039 714.145 -23.6086 726.925C13.4313 737.333 59.6429 727.024 73.8924 680.15C77.3602 669.01 81.6567 655.678 86.5846 641.791L87.1715 640.049C105.993 584.191 131.573 508.273 131.197 437.459C130.654 352.103 93.6099 294.865 17.9063 262.993C17.7638 262.955 17.3839 262.842 16.7842 262.665L16.7835 262.665C14.5383 262 9.21528 260.423 1.75111 258.423ZM-163.11 291.735C-121.291 250.076 -37.4744 266.982 -3.46676 276.095C3.69482 278.014 8.68007 279.67 10.5211 280.282C10.938 280.421 11.1936 280.506 11.2768 280.528C80.8554 310.034 114.871 362.357 115.302 440.925C115.777 506.385 92.0357 576.589 74.6192 628.092L74.619 628.092L74.3595 628.86C74.0253 629.833 73.6921 630.803 73.3605 631.768L73.3106 631.913L73.3016 631.94L73.3013 631.94C69.2873 643.623 65.4971 654.655 62.7373 664.126C49.8597 706.781 8.18478 716.374 -25.5976 707.322L-26.7237 707.02C-69.4288 694.888 -107.853 653.718 -95.9609 590.43C-101.359 643.541 -67.5159 678.277 -30.2615 688.692L-29.3606 688.934C2.16962 697.382 41.2905 688.312 53.7296 648.195C55.5959 641.839 57.992 634.742 60.5459 627.177C61.7686 623.556 63.0275 619.827 64.2818 616.021C80.2284 569.119 101.904 504.441 101.676 444.032C101.236 372.704 68.9897 322.786 5.64056 296.156C5.60698 296.147 5.47595 296.105 5.25197 296.033C-2.03827 293.686 -107.781 259.641 -155.108 306.914C-178.762 330.451 -159.546 364.514 -135.227 407.623L-135.089 407.869L-134.509 408.902C-110.467 451.769 -81.044 504.23 -90.0385 559.76C-84.0344 500.905 -115.134 445.625 -140.787 400.307L-140.932 400.049C-167.227 353.519 -188.086 316.606 -163.11 291.735ZM-8.52008 294.052C-39.3746 285.784 -116.089 270.298 -154.059 308.402C-176.736 330.996 -157.849 364.486 -133.861 407.022L-133.721 407.269C-111.061 447.375 -83.7577 495.769 -87.0512 547.538C-81.1735 498.706 -107.11 452.642 -128.533 414.935C-149.846 377.361 -168.19 344.927 -146.732 323.4C-103.804 280.487 -7.76017 311.517 -1.52661 313.531L-1.32344 313.597C-1.29205 313.607 -1.26697 313.615 -1.24834 313.62C-1.23186 313.626 -1.2204 313.629 -1.21398 313.631C56.0102 337.895 85.2285 382.898 85.7817 447.498C86.1065 502.139 66.3462 560.571 51.7713 603.254C51.5396 603.944 51.3086 604.63 51.0786 605.314L50.6213 606.673C47.4768 616.016 44.5357 624.755 42.2892 632.336C31.4472 668.294 -3.87308 676.693 -32.4755 669.029L-33.3763 668.788C-66.5327 659.479 -96.669 629.153 -93.2803 582.702C-103.033 639.39 -68.3375 676.345 -29.8391 687.116C1.12006 695.894 39.8951 687.214 51.6423 647.877C53.5086 641.521 55.9047 634.424 58.4586 626.859C59.6813 623.238 60.9402 619.509 62.1944 615.703C78.1411 568.801 99.9813 504.409 99.6932 444.225C99.3136 372.672 68.2213 324.753 4.87219 298.123C4.25689 297.717 -0.637503 296.164 -8.52008 294.052ZM-145.111 324.559C-110.826 290.295 -41.6645 304.24 -13.7377 311.723C-8.22019 313.202 -4.32211 314.388 -2.49457 314.944L-2.48817 314.946C-1.93223 315.115 -1.56896 315.225 -1.4112 315.268C129.16 370.289 80.0525 515.724 50.5407 602.442C50.1543 603.591 49.77 604.733 49.3887 605.866L49.3874 605.87C46.2441 615.21 43.3043 623.945 41.0586 631.523C30.458 666.581 -4.00562 674.485 -31.7072 667.063L-32.608 666.821C-66.3746 657.331 -97.0063 625.53 -90.5068 576.616C-91.1615 615.53 -65.1322 640.802 -36.7168 648.823L-35.8159 649.064C-10.1414 655.944 21.7684 648.562 31.1944 616.086C31.9108 613.929 32.6569 611.66 33.4337 609.298L33.4409 609.276L33.4439 609.267C35.3775 603.387 37.5015 596.929 39.8316 590.158C52.7491 551.859 70.3693 499.612 70.1726 450.799C69.9567 393.049 43.8266 352.735 -7.5581 331.001C-7.5844 330.994 -7.68633 330.961 -7.86051 330.905L-7.8661 330.903L-7.86933 330.902L-7.87105 330.901C-13.7594 329.001 -99.445 301.356 -137.845 339.782C-157.228 358.969 -140.697 388.261 -121.693 421.838C-103.89 453.234 -82.4509 491.165 -84.0497 531.728C-84.508 488.338 -107.293 447.917 -126.318 414.166L-126.535 413.781C-148.341 375.351 -165.532 344.916 -145.111 324.559ZM-19.0161 329.62C-44.0151 322.922 -105.849 310.457 -136.51 341.105C-154.691 359.407 -139.478 386.416 -119.98 420.848L-119.479 421.739C-101.254 454.158 -79.3332 493.15 -82.1347 534.951C-76.3601 495.781 -97.279 458.803 -114.362 428.605L-114.507 428.349C-131.368 398.486 -145.755 372.905 -128.838 355.713C-94.961 321.771 -19.6179 346.042 -14.0947 347.821C-13.9154 347.878 -13.8097 347.912 -13.7814 347.92C31.5387 367.064 54.5804 402.687 54.9096 453.709C55.2021 496.579 39.566 542.604 28.1528 576.199L28.1527 576.199L28.0127 576.611C26.8674 580.133 25.7145 583.527 24.6117 586.773L24.6116 586.774L24.6112 586.775C23.0724 591.304 21.6314 595.546 20.4456 599.447C11.9248 628.544 -16.1239 635.029 -38.8707 628.934L-39.5464 628.753C-65.4335 621.398 -89.0055 597.941 -86.9313 561.954C-95.2546 608.156 -67.285 638.243 -36.0088 647.082L-35.3332 647.263C-10.5594 653.901 20.0432 646.893 29.3927 615.604C31.5661 608.352 34.5347 599.775 37.592 590.941L38.0299 589.675C64.3918 512.011 108.314 382.325 -8.32641 332.967C-8.4913 332.682 -12.4848 331.37 -19.0161 329.62ZM-127.563 357.262C-100.587 330.454 -46.3052 341.378 -24.234 347.292C-21.9493 347.904 -20.0082 348.464 -18.4891 348.902C-16.2645 349.544 -14.9446 349.924 -14.7749 349.826C87.9396 393.021 49.2847 507.201 26.1239 575.613L26.0461 575.843C23.0772 584.22 20.4543 592.207 18.4186 598.904C9.97434 626.815 -17.2176 632.805 -39.2284 626.666C-66.8458 619.036 -91.5238 592.262 -83.9161 551.285C-85.4285 582.354 -65.1988 602.602 -42.6614 608.849L-41.9858 609.03C-22.392 614.28 2.02088 608.752 9.45545 583.709C10.8952 579.058 12.6355 573.867 14.5286 568.219L14.5311 568.211C14.9964 566.823 15.4709 565.408 15.9525 563.966C25.9453 534.78 39.2852 494.904 39.18 457.46C38.9628 413.228 18.7842 382.234 -20.4712 365.68C-23.3387 364.671 -89.982 342.227 -120.297 372.485C-135.052 387.25 -122.651 409.292 -108.206 434.965L-107.952 435.417C-93.3054 461.086 -75.433 492.615 -79.6173 525.959C-77.8708 489.543 -97.1 455.434 -113.019 427.3C-130.044 397.15 -143.443 373.284 -127.563 357.262ZM-29.287 365.249C-48.2051 360.18 -95.3841 350.677 -118.512 373.929C-132.316 387.611 -120.506 408.397 -105.728 434.323L-105.587 434.572C-92.6345 457.534 -77.2222 484.856 -76.6672 514.233C-75.1555 487.88 -89.153 462.946 -100.677 442.42L-100.826 442.154C-113.296 420.226 -123.952 401.439 -111.125 388.702C-86.7396 364.332 -34.7531 380.356 -27.3337 382.643C-26.9295 382.768 -26.6576 382.851 -26.5296 382.886C50.2398 415.284 21.4963 500.035 4.29845 550.705C2.58774 555.649 1.09807 560.344 -0.193195 564.414L-0.195571 564.421L-0.196386 564.424C-0.519374 565.442 -0.829949 566.421 -1.12845 567.355C-7.82267 588.735 -28.4349 593.591 -45.3261 589.065L-45.7765 588.945C-63.9301 583.881 -80.4768 567.919 -80.8005 543.619C-86.467 577.96 -65.2574 600.396 -41.8931 606.883L-41.2174 607.064C-22.5245 612.072 0.641602 606.693 7.93929 583.061C9.46468 578.134 11.3709 572.437 13.4084 566.348L13.4088 566.346L13.4308 566.28C13.7826 565.229 14.1383 564.166 14.4967 563.093L14.5747 562.862C34.5252 503.727 67.8292 405.013 -20.7288 367.543L-29.287 365.249ZM-109.85 390.251C-90.1214 370.674 -50.4952 378.637 -34.5049 382.921C-31.2243 383.8 -28.8681 384.59 -27.9692 384.891C-27.7574 384.962 -27.6265 385.006 -27.5835 385.017C47.2193 416.647 19.0027 500.332 2.04629 550.101C0.253544 555.283 -1.2965 560.19 -2.66544 564.525C-2.93059 565.364 -3.18895 566.182 -3.44096 566.977C-9.5479 587.065 -29.3034 591.428 -45.2334 586.918C-65.3118 581.308 -83.2131 561.869 -77.6832 532.219C-77.0383 551.384 -64.0315 564.787 -48.8916 569.04L-48.4412 569.161C-34.703 572.842 -17.6663 568.717 -12.2835 551.331C-11.6131 548.829 -10.702 546.115 -9.72352 543.201L-9.72333 543.2L-9.72319 543.199C-9.11643 541.392 -8.48371 539.507 -7.86631 537.548L-7.86324 537.539C6.18501 495.921 29.5701 426.642 -33.324 400.135C-33.3887 400.117 -33.4985 400.085 -33.6511 400.038C-33.7455 400.009 -33.8562 399.975 -33.9828 399.936C-40.0617 398.061 -82.6673 384.919 -102.689 404.963C-113.215 415.419 -104.372 431.065 -94.2105 448.996C-84.652 465.839 -73.0175 486.527 -74.4591 508.273C-75.0946 483.5 -88.1303 460.45 -99.1125 441.165L-99.3345 440.768C-111.638 418.804 -121.285 401.584 -109.85 390.251ZM-100.963 406.633C-85.1441 390.836 -52.8456 397.318 -39.7831 400.818L-39.7817 400.818C-36.4043 401.723 -34.3779 402.266 -34.213 402.552C26.7191 428.293 3.68805 496.228 -10.1185 536.945C-11.7317 542.064 -13.2242 546.734 -14.5357 550.727C-19.3311 566.822 -35.0004 570.348 -47.8377 566.909L-48.2881 566.788C-65.3442 561.976 -80.5531 544.866 -73.778 518.68C-67.0847 492.818 -80.5405 468.733 -91.5158 449.087L-91.5543 449.018C-91.7745 448.624 -91.9936 448.232 -92.2116 447.841L-92.8021 446.78C-102.462 429.417 -110.042 415.793 -100.963 406.633Z" fill="url(#paint0_linear_4_390)"/>
<defs>
<linearGradient id="paint0_linear_4_390" x1="-388.044" y1="391.59" x2="313.817" y2="579.653" gradientUnits="userSpaceOnUse">
<stop stop-color="#FFD110" stop-opacity="0"/>
<stop offset="0.286458" stop-color="#109BFF"/>
<stop offset="0.614583" stop-color="#FF0469"/>
<stop offset="1" stop-color="#04DA00" stop-opacity="0"/>
</linearGradient>
</defs>
</svg>
